{"glyphs":{"0":{"ha":1011,"x_min":0,"x_max":0,"o":"m 335 544 b 508 753 335 692 413 753 b 678 544 606 753 678 688 l 678 413 b 506 199 678 264 603 199 b 335 413 408 199 335 264 z m 65 413 b 511 -26 65 94 281 -26 b 946 414 744 -26 946 103 l 946 546 b 508 985 946 851 751 985 b 65 546 269 985 65 863 z "},"1":{"ha":658,"x_min":0,"x_max":0,"o":"m 67 0 l 625 0 l 625 207 l 481 207 l 481 989 l 75 842 l 75 626 l 222 669 l 222 207 l 67 207 z "},"2":{"ha":958,"x_min":0,"x_max":0,"o":"m 349 665 b 489 768 356 739 408 768 b 621 675 556 768 621 743 b 485 574 621 596 539 574 b 64 226 285 574 64 515 l 64 0 l 885 0 l 885 233 l 326 233 b 485 357 326 346 418 357 b 892 679 718 357 892 438 b 489 986 892 886 707 986 b 81 665 272 986 82 892 z "},"3":{"ha":967,"x_min":0,"x_max":0,"o":"m 488 399 b 622 300 615 399 622 325 b 488 204 622 238 556 204 b 324 321 406 204 325 233 l 54 321 b 474 -18 53 71 278 -18 b 908 283 663 -18 908 56 b 757 497 908 372 869 456 b 886 685 838 532 886 611 b 475 989 886 908 663 989 b 68 667 282 989 74 906 l 332 667 b 475 763 333 736 403 763 b 611 674 560 763 611 721 b 475 593 608 606 529 593 l 311 593 l 311 399 z "},"4":{"ha":960,"x_min":0,"x_max":0,"o":"m 544 972 l 26 396 l 44 168 l 540 168 l 540 0 l 799 0 l 799 168 l 903 168 l 903 385 l 799 385 l 799 972 z m 310 385 l 540 639 l 540 385 z "},"5":{"ha":924,"x_min":0,"x_max":0,"o":"m 821 971 l 82 971 l 82 417 l 467 417 b 604 311 517 417 606 406 b 469 208 604 225 510 208 b 333 322 408 208 333 240 l 65 322 b 472 -12 67 76 240 -12 b 872 311 656 -12 872 72 b 467 632 874 574 681 632 l 336 632 l 336 747 l 821 747 z "},"6":{"ha":981,"x_min":0,"x_max":0,"o":"m 906 690 b 496 989 906 915 715 989 b 75 658 282 989 75 889 l 75 321 b 504 -17 75 81 294 -17 b 928 318 718 -17 928 79 b 569 633 928 524 775 633 b 344 567 492 633 400 608 l 344 658 b 497 775 344 733 421 775 b 643 690 575 775 638 749 z m 504 208 b 347 319 401 208 347 263 b 506 436 347 385 399 436 b 654 318 596 436 654 393 b 504 208 654 249 588 208 z "},"7":{"ha":824,"x_min":0,"x_max":0,"o":"m 396 0 l 814 850 l 807 974 l 40 974 l 40 747 l 467 747 l 99 0 z "},"8":{"ha":1001,"x_min":0,"x_max":0,"o":"m 501 406 b 654 301 599 406 654 363 b 500 200 657 232 579 200 b 343 303 415 200 343 236 b 501 406 343 368 407 406 z m 58 303 b 500 -21 53 64 249 -21 b 942 303 751 -21 946 65 b 814 514 940 357 917 458 b 917 700 882 556 918 625 b 489 993 917 894 718 993 b 88 697 263 993 88 894 b 188 504 89 622 121 551 b 58 303 94 456 60 354 z m 494 586 b 496 785 317 586 317 785 b 494 586 675 785 674 586 z "},"9":{"ha":983,"x_min":0,"x_max":0,"o":"m 68 282 b 479 -17 68 57 260 -17 b 908 324 693 -17 908 79 l 908 651 b 479 989 908 892 689 989 b 56 654 265 989 56 893 b 414 339 56 449 208 339 b 639 406 492 339 569 350 l 639 322 b 476 197 639 239 553 197 b 331 282 399 197 336 224 z m 479 764 b 636 653 582 764 636 710 b 478 536 636 588 585 536 b 329 654 388 536 329 579 b 479 764 329 724 396 764 z "}," ":{"ha":315,"x_min":0,"x_max":0,"o":""},"/":{"ha":739,"x_min":0,"x_max":0,"o":"m 467 1044 l 33 -107 l 271 -107 l 707 1044 z "},"\\":{"ha":740,"x_min":0,"x_max":0,"o":"m 32 1044 l 467 -107 l 707 -107 l 271 1044 z "},"_":{"ha":710,"x_min":0,"x_max":0,"o":"m 13 -199 l 697 -199 l 697 4 l 13 4 z "},"¦":{"ha":442,"x_min":0,"x_max":0,"o":"m 350 471 l 350 971 l 92 971 l 92 471 z m 92 389 l 92 -119 l 350 -119 l 350 389 z "},"⁄":{"ha":250,"x_min":0,"x_max":0,"o":"m 279 967 l -256 -7 l -31 -7 l 504 967 z "},"ı":{"ha":406,"x_min":0,"x_max":0,"o":"m 331 0 l 331 686 l 75 686 l 75 0 z "},"Þ":{"ha":967,"x_min":0,"x_max":0,"o":"m 97 0 l 371 0 l 371 153 l 557 153 b 946 488 817 153 946 319 b 557 822 946 656 817 822 l 371 822 l 371 972 l 99 972 z m 371 593 l 557 593 b 674 485 635 593 674 538 b 557 378 674 432 635 378 l 371 378 z "},"ß":{"ha":881,"x_min":0,"x_max":0,"o":"m 403 -7 b 501 -14 438 -12 471 -14 b 844 293 693 -14 844 88 b 658 539 844 386 803 486 b 781 715 731 572 781 633 b 436 988 781 913 607 988 b 75 704 257 988 75 889 l 75 0 l 343 0 l 343 700 b 435 775 344 747 381 775 b 515 707 475 775 515 751 b 425 639 515 664 482 639 l 403 639 l 403 415 l 439 415 b 579 311 508 415 579 401 b 461 188 579 263 563 188 b 403 196 449 188 429 190 z "},"ð":{"ha":813,"x_min":0,"x_max":0,"o":"m 408 911 b 192 963 358 932 281 951 l 153 781 b 426 668 240 769 353 732 b 382 669 411 669 399 669 b 38 331 178 669 38 528 b 404 -11 38 157 160 -11 b 771 347 651 -11 758 140 b 565 819 775 506 726 693 l 625 889 l 482 999 z m 404 196 b 404 467 244 196 249 467 b 404 196 568 467 565 196 z "},"þ":{"ha":889,"x_min":0,"x_max":0,"o":"m 472 204 b 347 342 404 204 347 268 b 472 479 347 415 406 479 b 599 342 542 479 599 426 b 472 204 599 257 542 204 z m 329 -269 l 329 58 b 526 -12 385 8 465 -12 b 851 347 750 -12 851 164 b 540 700 851 531 742 700 b 329 626 457 700 388 681 l 329 956 l 75 956 l 75 -269 z "},"£":{"ha":929,"x_min":0,"x_max":0,"o":"m 404 656 b 510 771 404 733 446 771 b 606 671 565 771 604 739 l 849 671 b 501 986 858 885 713 986 b 139 654 261 986 131 847 b 153 560 140 628 146 589 l 69 560 l 69 371 l 190 371 b 69 217 196 306 158 219 l 69 0 l 869 0 l 869 218 l 407 218 b 450 371 439 250 457 324 l 681 371 l 681 560 l 418 560 b 404 656 410 592 404 626 z "},"§":{"ha":888,"x_min":0,"x_max":0,"o":"m 51 96 b 438 -25 165 -6 297 -25 b 822 217 571 -25 822 6 b 738 360 822 267 792 324 b 824 485 783 390 818 442 b 457 718 838 682 621 718 b 340 754 383 718 340 729 b 465 794 340 779 383 794 b 658 744 546 794 617 776 l 793 878 b 465 986 682 976 569 986 b 89 749 301 986 89 936 b 179 608 89 708 107 647 b 81 482 121 585 82 522 b 449 253 71 310 272 250 b 575 214 529 254 575 238 b 443 171 575 185 524 171 b 161 258 381 171 281 178 z m 585 488 b 440 436 585 442 488 436 b 318 489 371 436 318 456 b 457 542 318 526 375 542 b 585 488 533 542 585 524 z "},"ﬁ":{"ha":979,"x_min":0,"x_max":0,"o":"m 633 863 b 778 735 633 778 706 735 b 921 863 849 735 921 778 b 778 992 921 949 849 992 b 633 863 706 992 633 949 z m 649 0 l 649 675 l 906 675 l 906 0 z m 542 781 b 472 792 522 789 497 792 b 396 707 432 792 396 767 l 396 674 l 561 674 l 561 479 l 396 479 l 396 0 l 140 0 l 140 479 l 24 479 l 24 674 l 140 674 l 140 707 b 436 988 140 908 294 988 b 590 957 490 988 546 981 z "},"ﬂ":{"ha":981,"x_min":0,"x_max":0,"o":"m 906 0 l 906 967 l 654 967 l 654 0 z m 590 957 b 436 988 546 981 490 988 b 140 707 294 988 140 908 l 140 674 l 24 674 l 24 479 l 140 479 l 140 0 l 396 0 l 396 479 l 561 479 l 561 674 l 396 674 l 396 707 b 472 792 396 767 432 792 b 542 781 497 792 522 789 z "},"Ł":{"ha":872,"x_min":0,"x_max":0,"o":"m 385 629 l 385 972 l 111 972 l 111 492 l 15 443 l 15 242 l 111 290 l 111 0 l 851 0 l 851 231 l 385 231 l 385 425 l 522 494 l 522 701 z "},"ł":{"ha":460,"x_min":0,"x_max":0,"o":"m 440 653 l 351 610 l 351 954 l 99 954 l 99 483 l 18 442 l 18 254 l 99 299 l 99 0 l 351 0 l 351 426 l 440 471 z "},"+":{"ha":719,"x_min":0,"x_max":0,"o":"m 56 556 l 56 343 l 244 343 l 244 158 l 474 158 l 474 343 l 664 343 l 664 556 l 474 556 l 474 739 l 244 739 l 244 556 z "},"*":{"ha":601,"x_min":0,"x_max":0,"o":"m 513 643 l 429 722 l 550 744 l 503 913 l 376 860 l 396 981 l 211 981 l 221 861 l 103 908 l 51 744 l 174 719 l 88 628 l 239 532 l 301 642 l 365 533 z "},")":{"ha":519,"x_min":0,"x_max":0,"o":"m 8 971 b 250 442 154 851 250 656 b 22 -79 250 246 163 36 l 132 -226 b 481 442 365 -71 481 167 b 125 1107 481 715 336 958 z "},"(":{"ha":519,"x_min":0,"x_max":0,"o":"m 394 1107 b 39 442 183 958 39 715 b 388 -226 39 167 154 -71 l 497 -79 b 269 442 357 36 269 246 b 511 971 269 656 365 851 z "},"'":{"ha":369,"x_min":0,"x_max":0,"o":"m 81 974 l 81 594 l 289 594 l 289 974 z "},"&":{"ha":1032,"x_min":0,"x_max":0,"o":"m 328 299 b 471 392 328 376 408 392 l 619 392 l 619 326 b 463 206 619 249 543 206 b 328 299 393 206 328 232 z m 871 692 b 494 990 871 915 690 990 b 90 689 322 990 90 924 b 197 496 90 633 117 536 b 57 283 111 447 57 357 b 429 -15 57 49 243 -15 b 728 103 563 -15 654 25 b 971 -1 774 -12 883 -18 l 971 239 b 867 321 904 228 867 268 l 867 396 l 965 396 l 965 590 l 486 590 b 369 694 433 590 369 622 b 621 692 369 814 618 822 z "},"%":{"ha":1250,"x_min":0,"x_max":0,"o":"m 293 986 b 46 753 122 986 46 869 b 293 521 46 635 122 521 b 542 753 465 521 542 635 b 293 986 542 869 465 986 z m 817 971 l 176 0 l 431 0 l 1067 971 z m 293 692 b 228 753 249 692 228 722 b 293 814 228 783 249 814 b 358 753 339 814 358 783 b 293 692 358 722 339 692 z m 956 454 b 708 221 785 454 708 338 b 956 -11 708 103 785 -11 b 1204 221 1128 -11 1204 103 b 956 454 1204 338 1128 454 z m 956 160 b 890 221 911 160 890 190 b 956 282 890 251 911 282 b 1021 221 1001 282 1021 251 b 956 160 1021 190 1001 160 z "},"#":{"ha":1026,"x_min":0,"x_max":0,"o":"m 339 972 l 292 774 l 140 774 l 140 579 l 243 579 l 194 376 l 50 376 l 50 179 l 144 179 l 101 0 l 333 0 l 378 179 l 506 179 l 463 0 l 697 0 l 740 179 l 885 179 l 885 376 l 785 376 l 838 578 l 975 578 l 975 774 l 886 774 l 936 972 l 700 972 l 651 774 l 522 774 l 572 972 z m 607 590 l 551 368 l 422 368 l 478 590 z "},"\"":{"ha":654,"x_min":0,"x_max":0,"o":"m 81 974 l 81 594 l 289 594 l 289 974 z m 365 974 l 365 594 l 574 594 l 574 974 z "},"!":{"ha":446,"x_min":0,"x_max":0,"o":"m 353 319 l 358 972 l 89 972 l 93 319 z m 221 -7 b 221 265 419 -7 418 265 b 221 -7 26 265 26 -7 z "},",":{"ha":382,"x_min":0,"x_max":0,"o":"m 319 85 b 196 199 319 161 260 199 b 61 86 126 199 61 160 b 135 -7 61 46 75 4 l 106 -150 l 239 -150 b 319 85 293 -39 319 39 z "},"-":{"ha":708,"x_min":0,"x_max":0,"o":"m 75 301 l 633 301 l 633 504 l 75 504 z "},".":{"ha":393,"x_min":0,"x_max":0,"o":"m 196 -11 b 196 240 381 -11 382 240 b 196 -11 11 240 14 -11 z "},":":{"ha":436,"x_min":0,"x_max":0,"o":"m 79 115 b 217 -8 79 33 147 -8 b 357 115 286 -8 357 33 b 217 239 357 197 286 239 b 79 115 147 239 79 197 z m 79 492 b 217 368 79 408 147 368 b 357 492 286 368 357 408 b 217 614 357 574 286 614 b 79 492 147 614 79 574 z "},";":{"ha":411,"x_min":0,"x_max":0,"o":"m 75 492 b 203 376 75 414 138 376 b 333 492 268 376 333 414 b 203 606 333 568 268 606 b 75 492 138 606 75 568 z m 335 85 b 211 199 335 161 275 199 b 76 86 142 199 76 160 b 150 -7 76 46 90 4 l 121 -150 l 254 -150 b 335 85 308 -39 335 39 z "},"<":{"ha":613,"x_min":0,"x_max":0,"o":"m 340 429 l 542 619 l 383 782 l 43 439 l 43 422 l 381 78 l 540 240 z "},">":{"ha":615,"x_min":0,"x_max":0,"o":"m 74 228 l 232 74 l 572 421 l 572 440 l 232 788 l 71 632 l 281 429 z "},"=":{"ha":774,"x_min":0,"x_max":0,"o":"m 83 176 l 690 176 l 690 376 l 83 376 z m 83 474 l 690 474 l 690 675 l 83 675 z "},"?":{"ha":835,"x_min":0,"x_max":0,"o":"m 531 319 b 789 681 535 497 788 479 b 406 983 790 894 604 983 b 46 658 207 983 25 872 l 290 658 b 406 761 290 739 344 761 b 507 678 475 761 508 721 b 440 599 506 647 485 625 b 261 319 364 554 271 507 z m 399 -7 b 399 265 597 -7 596 265 b 399 -7 204 265 204 -7 z "},"@":{"ha":1281,"x_min":0,"x_max":0,"o":"m 819 -26 b 643 -71 760 -62 689 -71 b 218 338 421 -71 218 43 b 649 758 218 597 424 758 b 1079 344 917 758 1079 646 b 996 144 1079 213 1046 144 b 965 185 989 144 965 150 l 965 631 l 817 654 l 808 586 b 617 676 776 642 703 676 b 288 338 453 676 288 561 b 617 -4 288 119 422 -4 b 824 96 708 -4 778 21 b 964 -14 850 8 915 -14 b 1233 349 1128 -14 1233 128 b 649 906 1233 738 974 906 b 57 338 356 906 57 707 b 639 -218 57 -54 353 -218 b 882 -153 711 -218 801 -200 z m 639 504 b 800 346 747 504 800 432 b 640 176 800 253 746 176 b 481 339 529 176 481 257 b 639 504 481 422 529 504 z "},"[":{"ha":517,"x_min":0,"x_max":0,"o":"m 468 -218 l 468 -17 l 321 -17 l 321 775 l 468 775 l 468 976 l 92 976 l 92 -218 z "},"]":{"ha":519,"x_min":0,"x_max":0,"o":"m 428 -218 l 428 976 l 49 976 l 49 775 l 196 775 l 196 -17 l 49 -17 l 49 -218 z "},"^":{"ha":886,"x_min":0,"x_max":0,"o":"m 50 460 l 289 460 l 435 686 l 590 460 l 836 460 l 836 479 l 510 960 l 363 960 l 50 478 z "},"`":{"ha":400,"x_min":0,"x_max":0,"o":"m -4 963 l 147 742 l 371 742 l 371 750 l 264 974 l -4 974 z "},"{":{"ha":536,"x_min":0,"x_max":0,"o":"m 486 -19 b 365 51 426 -28 367 -33 l 365 240 b 300 385 365 301 358 351 b 365 535 367 422 365 471 l 365 729 b 486 813 365 822 426 825 l 486 982 b 357 994 439 990 389 994 b 125 739 185 994 125 897 l 125 554 b 38 476 125 518 117 476 l 38 299 b 125 222 117 299 125 256 l 125 26 b 357 -217 125 -121 192 -217 b 486 -203 389 -217 442 -211 z "},"}":{"ha":536,"x_min":0,"x_max":0,"o":"m 50 -203 b 179 -217 94 -211 147 -217 b 411 26 344 -217 411 -121 l 411 222 b 499 299 411 256 419 299 l 499 476 b 411 554 419 476 411 518 l 411 739 b 179 994 411 897 351 994 b 50 982 147 994 97 990 l 50 813 b 171 729 110 825 171 822 l 171 535 b 236 385 171 471 169 422 b 171 240 178 351 171 301 l 171 51 b 50 -19 169 -33 110 -28 z "},"|":{"ha":432,"x_min":0,"x_max":0,"o":"m 340 1042 l 92 1042 l 92 -97 l 340 -97 z "},"~":{"ha":860,"x_min":0,"x_max":0,"o":"m 236 289 b 563 271 333 460 419 274 b 797 486 697 268 779 360 l 626 549 b 300 567 568 378 443 564 b 65 351 165 569 83 478 l 236 289 z "},"€":{"ha":896,"x_min":0,"x_max":0,"o":"m 60 276 l 168 276 b 654 -21 233 90 400 -21 b 849 8 710 -21 782 -12 l 782 208 b 464 276 682 172 536 196 l 621 276 l 657 444 l 396 444 b 396 514 394 468 394 490 l 672 514 l 713 676 l 461 676 b 769 747 526 790 653 790 l 836 943 b 175 676 600 1035 274 957 l 60 676 l 60 514 l 136 514 b 136 444 135 506 136 472 l 60 444 z "},"‚":{"ha":417,"x_min":0,"x_max":0,"o":"m 22 -215 l 224 -215 l 344 140 l 94 140 z "},"ƒ":{"ha":729,"x_min":0,"x_max":0,"o":"m 644 468 l 644 665 l 467 665 l 467 707 b 543 792 467 767 503 792 b 636 758 576 792 608 782 l 714 913 b 507 988 663 963 586 988 b 211 707 365 988 211 908 l 211 665 l 60 665 l 60 468 l 211 468 l 211 -3 b 135 -93 211 -68 175 -93 b 54 -60 101 -93 82 -83 l -24 -214 b 467 -1 147 -360 467 -310 l 467 468 z "},"„":{"ha":718,"x_min":0,"x_max":0,"o":"m 22 -215 l 224 -215 l 339 140 l 94 140 z m 329 -215 l 528 -215 l 646 140 l 406 140 z "},"‰":{"ha":1811,"x_min":0,"x_max":0,"o":"m 294 986 b 47 753 124 986 47 869 b 294 521 47 635 124 521 b 543 753 467 521 543 635 b 294 986 543 869 467 986 z m 818 971 l 178 0 l 432 0 l 1068 971 z m 294 692 b 229 753 250 692 229 722 b 294 814 229 783 250 814 b 360 753 340 814 360 783 b 294 692 360 722 340 692 z m 957 454 b 710 221 786 454 710 338 b 957 -11 710 103 786 -11 b 1206 221 1129 -11 1206 103 b 957 454 1206 338 1129 454 z m 957 160 b 892 221 913 160 892 190 b 957 282 892 251 913 282 b 1022 221 1003 282 1022 251 b 957 160 1022 190 1003 160 z m 1519 454 b 1272 221 1349 454 1272 338 b 1519 -11 1272 103 1349 -11 b 1768 221 1692 -11 1768 103 b 1519 454 1768 338 1692 454 z m 1519 160 b 1454 221 1475 160 1454 190 b 1519 282 1454 251 1475 282 b 1585 221 1565 282 1585 251 b 1519 160 1585 190 1565 160 z "},"ˆ":{"ha":626,"x_min":0,"x_max":0,"o":"m 218 981 l 7 763 l 7 751 l 226 751 l 297 817 l 368 751 l 588 751 l 588 763 l 376 981 z "},"†":{"ha":843,"x_min":0,"x_max":0,"o":"m 549 972 l 293 972 l 293 732 l 47 732 l 47 514 l 293 514 l 293 -128 l 549 -128 l 549 514 l 797 514 l 797 732 l 549 732 z "},"‡":{"ha":883,"x_min":0,"x_max":0,"o":"m 568 974 l 315 974 l 315 736 l 67 736 l 67 528 l 315 528 l 315 300 l 67 300 l 67 94 l 315 94 l 315 -142 l 568 -142 l 568 94 l 817 94 l 817 300 l 568 300 l 568 528 l 817 528 l 817 736 l 568 736 z "},"‹":{"ha":547,"x_min":0,"x_max":0,"o":"m 40 406 l 235 94 l 504 94 b 310 407 457 167 393 269 l 503 718 l 235 717 z "},"›":{"ha":544,"x_min":0,"x_max":0,"o":"m 313 722 l 43 722 l 235 411 l 43 103 l 313 103 l 506 413 z "},"«":{"ha":775,"x_min":0,"x_max":0,"o":"m 40 413 l 233 103 l 446 103 b 253 413 378 204 317 307 l 446 722 b 446 721 446 721 446 721 l 233 721 z m 326 413 l 519 103 l 733 103 l 540 413 l 733 722 b 733 721 733 721 733 721 l 519 721 z "},"»":{"ha":774,"x_min":0,"x_max":0,"o":"m 542 724 l 328 724 b 328 725 328 724 328 725 l 521 415 l 328 107 l 542 107 l 735 415 z m 257 724 l 44 724 b 44 725 44 724 44 725 l 238 415 l 44 107 l 257 107 l 450 415 z "},"‘":{"ha":407,"x_min":0,"x_max":0,"o":"m 363 974 l 171 974 l 46 614 l 292 614 z "},"’":{"ha":400,"x_min":0,"x_max":0,"o":"m 57 613 l 249 613 l 374 972 l 128 972 z "},"“":{"ha":699,"x_min":0,"x_max":0,"o":"m 379 972 l 193 972 l 46 621 l 282 621 z m 653 972 l 465 972 l 344 621 l 585 621 z "},"”":{"ha":686,"x_min":0,"x_max":0,"o":"m 333 621 l 519 621 l 667 972 l 431 972 z m 60 621 l 247 621 l 368 972 l 128 972 z "},"•":{"ha":610,"x_min":0,"x_max":0,"o":"m 306 236 b 519 432 426 236 519 314 b 306 631 519 550 426 631 b 90 432 182 631 90 550 b 306 236 90 314 182 236 z "},"—":{"ha":968,"x_min":0,"x_max":0,"o":"m 75 296 l 893 296 l 893 500 l 75 500 z "},"–":{"ha":843,"x_min":0,"x_max":0,"o":"m 74 292 l 769 292 l 769 496 l 74 496 z "},"˜":{"ha":676,"x_min":0,"x_max":0,"o":"m 328 793 b 624 901 461 726 575 775 l 489 989 b 340 965 451 926 401 932 b 42 863 232 1024 89 990 l 182 774 b 328 793 210 833 267 826 z "},"™":{"ha":1176,"x_min":0,"x_max":0,"o":"m 376 822 l 504 822 l 504 972 l 83 972 l 83 822 l 208 822 l 208 550 l 376 550 z m 728 972 l 564 972 l 564 549 l 729 549 l 729 644 l 724 746 l 803 635 l 842 635 l 921 744 l 915 644 l 915 549 l 1082 549 l 1082 972 l 917 972 l 824 851 z "},"¢":{"ha":779,"x_min":0,"x_max":0,"o":"m 586 256 b 458 199 551 218 506 199 b 310 340 361 199 310 265 b 460 497 310 426 363 497 b 578 447 506 497 544 482 l 714 594 b 532 692 663 644 599 678 l 532 800 l 308 800 l 308 682 b 60 342 169 640 60 532 b 308 4 60 146 168 43 l 308 -110 l 532 -110 l 532 -4 b 732 103 604 11 672 49 z "},"¤":{"ha":878,"x_min":0,"x_max":0,"o":"m 439 324 b 333 429 375 324 333 363 b 439 535 333 496 375 535 b 544 429 504 535 544 496 b 439 324 544 363 504 324 z m 439 722 b 328 708 400 722 363 718 l 231 804 l 63 636 l 143 556 b 119 429 128 519 119 478 b 143 301 119 379 128 338 l 67 224 l 235 56 l 326 149 b 439 135 363 139 400 135 b 550 150 476 135 514 140 l 643 57 l 811 225 l 735 300 b 760 429 750 336 760 379 b 735 558 760 479 751 522 l 813 636 l 644 804 l 550 708 b 439 722 514 717 476 722 z "},"©":{"ha":1136,"x_min":0,"x_max":0,"o":"m 574 1001 b 54 494 254 1001 54 776 b 574 -12 54 203 254 -12 b 1081 494 897 -12 1081 203 b 574 1001 1081 785 897 1001 z m 313 489 b 590 760 322 665 444 760 b 799 672 671 760 739 731 l 706 581 b 597 622 679 604 636 622 b 460 489 525 622 460 582 b 597 365 460 406 528 365 b 708 411 643 365 678 381 l 803 317 b 585 226 735 250 663 226 b 313 489 443 226 313 319 z m 207 494 b 574 865 207 711 353 865 b 929 494 797 865 929 719 b 574 122 929 268 797 122 b 207 494 353 122 207 272 z "},"ª":{"ha":608,"x_min":0,"x_max":0,"o":"m 381 906 b 243 974 357 942 319 974 b 22 733 117 974 22 889 b 238 492 22 576 114 499 b 379 564 293 492 350 507 l 390 503 l 547 503 l 547 964 l 399 964 z m 276 817 b 357 733 329 817 357 774 b 276 649 357 690 329 649 b 196 733 231 649 196 678 b 276 817 196 788 231 817 z m 50 286 l 543 286 l 543 433 l 50 433 z "},"¬":{"ha":774,"x_min":0,"x_max":0,"o":"m 682 547 l 81 547 l 81 361 l 468 361 l 468 188 l 682 188 z "},"−":{"ha":750,"x_min":0,"x_max":0,"o":"m 83 279 l 667 279 l 667 490 l 83 490 z "},"®":{"ha":1136,"x_min":0,"x_max":0,"o":"m 810 236 l 656 236 l 572 386 l 514 386 l 514 236 l 371 236 l 371 739 b 601 739 453 739 519 739 b 694 415 840 739 858 461 z m 511 615 l 511 503 l 608 503 b 607 615 678 503 676 615 z m 574 1001 b 54 494 254 1001 54 776 b 574 -12 54 203 254 -12 b 1081 494 897 -12 1081 203 b 574 1001 1081 785 897 1001 z m 207 494 b 574 865 207 711 353 865 b 929 494 797 865 929 719 b 574 122 929 268 797 122 b 207 494 353 122 207 272 z "},"°":{"ha":540,"x_min":0,"x_max":0,"o":"m 271 983 b 47 781 121 983 47 879 b 268 582 47 681 119 582 b 493 782 419 582 493 681 b 271 983 493 879 419 983 z m 269 843 b 333 782 315 843 333 811 b 269 722 333 751 311 722 b 206 782 228 722 206 751 b 269 843 206 811 225 843 z "},"±":{"ha":782,"x_min":0,"x_max":0,"o":"m 83 456 l 274 456 l 274 269 l 510 269 l 510 456 l 699 456 l 699 672 l 510 672 l 510 858 l 274 858 l 274 672 l 83 672 z m 81 -3 l 701 -3 l 701 201 l 81 201 z "},"³":{"ha":533,"x_min":0,"x_max":0,"o":"m 263 735 b 331 692 307 735 331 717 b 260 647 331 661 296 647 b 193 686 229 647 197 656 l 38 686 b 261 514 39 564 151 514 b 490 679 361 514 490 544 b 417 790 490 725 468 769 b 476 888 454 808 476 850 b 260 1057 476 1010 360 1057 b 47 889 163 1057 47 1007 l 181 889 b 256 928 186 915 221 928 b 326 889 299 928 326 914 b 257 846 326 865 307 846 l 176 846 l 176 735 z "},"²":{"ha":525,"x_min":0,"x_max":0,"o":"m 197 883 b 261 925 203 910 225 925 b 325 882 299 925 325 911 b 232 829 325 851 282 842 b 49 663 150 810 49 786 l 49 525 l 474 525 l 474 667 l 192 667 b 279 715 196 696 235 706 b 478 882 365 733 478 756 b 260 1057 478 999 379 1057 b 51 883 150 1057 53 994 z "},"µ":{"ha":890,"x_min":0,"x_max":0,"o":"m 829 0 l 829 686 l 585 686 l 585 361 b 461 225 583 265 525 225 b 336 360 403 225 336 256 l 336 686 l 88 686 l 88 -285 l 326 -285 l 326 61 b 597 88 404 -43 557 -19 l 622 0 z "},"¶":{"ha":1238,"x_min":0,"x_max":0,"o":"m 633 739 l 803 739 l 803 -278 l 1056 -278 l 1056 739 l 1182 739 l 1182 972 l 421 972 b 386 267 -99 972 -56 267 l 386 -278 l 633 -278 z "},"·":{"ha":414,"x_min":0,"x_max":0,"o":"m 206 276 b 206 540 399 276 397 540 b 206 276 13 540 14 276 z "},"¸":{"ha":506,"x_min":0,"x_max":0,"o":"m 58 -276 b 474 -232 150 -400 419 -399 b 335 -33 504 -137 457 -46 l 361 40 l 197 40 l 139 -112 l 178 -142 b 296 -187 226 -108 308 -139 b 146 -185 281 -246 186 -225 z "},"¹":{"ha":397,"x_min":0,"x_max":0,"o":"m 46 526 l 367 526 l 367 658 l 279 658 l 279 1050 l 60 992 l 60 863 b 131 878 78 865 108 874 l 131 658 l 46 658 z "},"º":{"ha":590,"x_min":0,"x_max":0,"o":"m 49 251 l 543 251 l 543 424 l 49 424 z m 294 478 b 565 736 450 478 565 564 b 294 989 565 906 453 989 b 24 736 138 989 24 906 b 294 478 24 564 140 478 z m 294 651 b 211 736 250 651 211 681 b 294 821 211 790 250 821 b 378 736 340 821 378 790 b 294 651 378 681 340 651 z "},"÷":{"ha":751,"x_min":0,"x_max":0,"o":"m 53 554 l 699 554 l 699 353 l 53 353 z m 246 185 b 382 64 246 104 313 64 b 518 185 450 64 518 104 b 382 308 518 268 450 308 b 246 185 313 308 246 268 z m 246 724 b 382 601 246 642 313 601 b 518 724 450 601 518 642 b 382 846 518 807 450 846 b 246 724 313 846 246 807 z "},"×":{"ha":661,"x_min":0,"x_max":0,"o":"m 224 706 l 61 549 l 174 433 l 57 318 l 218 160 b 331 278 250 194 294 240 l 446 161 l 603 308 l 482 429 l 603 553 l 449 707 l 333 589 z "},"ˇ":{"ha":619,"x_min":0,"x_max":0,"o":"m 393 742 l 604 960 l 604 971 l 385 971 l 314 906 l 243 971 l 24 971 l 24 960 l 235 742 z "},"˛":{"ha":542,"x_min":0,"x_max":0,"o":"m 349 -175 b 242 -162 324 -187 251 -199 b 313 -107 233 -131 268 -107 b 383 -115 343 -107 372 -112 l 360 -11 b 268 -3 319 -4 292 -3 b 68 -207 132 -3 44 -93 b 431 -279 99 -353 335 -365 z "},"˝":{"ha":736,"x_min":0,"x_max":0,"o":"m 157 972 l 21 746 l 249 746 l 390 961 l 390 972 z m 469 972 l 333 746 l 561 746 l 703 961 l 703 972 z "},"˚":{"ha":593,"x_min":0,"x_max":0,"o":"m 289 981 b 289 593 3 981 4 593 b 289 981 582 593 578 981 z m 292 842 b 292 733 369 842 371 733 b 292 842 211 733 211 842 z "},"˙":{"ha":383,"x_min":0,"x_max":0,"o":"m 50 847 b 190 724 50 765 119 724 b 331 847 260 724 331 765 b 190 971 331 929 260 971 b 50 847 119 971 50 929 z "},"˘":{"ha":564,"x_min":0,"x_max":0,"o":"m 40 972 b 285 736 36 824 138 736 b 529 972 432 736 533 824 l 343 972 b 285 911 343 918 300 911 b 226 972 269 911 226 918 z "},"B":{"ha":1026,"x_min":0,"x_max":0,"o":"m 369 399 l 601 399 b 704 306 669 399 704 358 b 601 214 704 251 671 214 l 369 214 z m 369 750 l 592 750 b 676 674 646 750 676 717 b 589 601 676 631 646 601 l 369 601 z m 99 972 l 99 0 l 600 0 b 976 285 778 1 976 67 b 842 511 976 372 932 463 b 949 700 926 550 949 626 b 596 972 949 886 790 972 z "},"A":{"ha":1107,"x_min":0,"x_max":0,"o":"m 833 0 l 1128 0 l 693 972 l 415 972 l -21 0 l 271 0 l 335 160 l 769 160 z m 676 390 l 428 390 l 553 700 z "},"C":{"ha":982,"x_min":0,"x_max":0,"o":"m 807 307 b 578 208 738 236 643 208 b 318 478 386 208 319 351 b 578 757 317 604 390 757 b 785 672 643 757 715 739 l 954 839 b 578 994 844 946 718 994 b 46 479 213 994 44 729 b 578 -25 47 215 196 -25 b 968 126 725 -25 858 18 z "},"D":{"ha":1071,"x_min":0,"x_max":0,"o":"m 99 972 l 99 0 l 515 0 b 1024 493 864 0 1024 225 b 515 972 1024 761 858 972 z m 371 743 l 515 743 b 751 496 683 743 751 629 b 515 232 751 363 690 232 l 371 232 z "},"E":{"ha":933,"x_min":0,"x_max":0,"o":"m 876 232 l 369 232 l 369 379 l 829 379 l 829 603 l 369 603 l 369 742 l 857 742 l 857 972 l 99 972 l 99 0 l 876 0 z "},"F":{"ha":890,"x_min":0,"x_max":0,"o":"m 371 0 l 371 335 l 815 335 l 815 560 l 371 560 l 371 742 l 844 742 l 844 972 l 99 972 l 99 0 z "},"G":{"ha":1050,"x_min":0,"x_max":0,"o":"m 958 843 b 576 1000 831 972 711 1000 b 44 485 211 1000 44 739 b 575 -26 44 231 190 -26 b 993 164 763 -26 932 40 l 993 596 l 518 596 l 518 381 l 764 381 l 764 256 b 576 206 708 215 628 206 b 315 485 381 206 315 360 b 576 769 315 675 418 769 b 799 685 642 769 728 751 z "},"H":{"ha":1094,"x_min":0,"x_max":0,"o":"m 996 -1 l 996 971 l 724 971 l 724 601 l 374 601 l 374 971 l 99 971 l 99 -1 l 374 -1 l 374 367 l 724 367 l 724 -1 z "},"I":{"ha":471,"x_min":0,"x_max":0,"o":"m 372 0 l 372 972 l 99 972 l 99 0 z "},"J":{"ha":1011,"x_min":0,"x_max":0,"o":"m 21 419 b 465 -21 21 115 185 -21 b 926 419 764 -21 926 164 l 926 972 l 393 972 l 393 742 l 651 742 l 651 421 b 468 218 651 289 583 218 b 289 419 372 218 292 274 z "},"K":{"ha":976,"x_min":0,"x_max":0,"o":"m 958 972 l 629 972 b 374 653 547 869 457 756 l 374 972 l 99 972 l 99 0 l 374 0 l 374 324 l 651 0 l 992 0 l 992 17 b 564 496 857 171 700 346 l 958 956 z "},"L":{"ha":861,"x_min":0,"x_max":0,"o":"m 99 972 l 99 0 l 839 0 l 839 233 l 374 233 l 374 972 z "},"M":{"ha":1282,"x_min":0,"x_max":0,"o":"m 911 0 l 1183 0 l 1183 972 l 897 972 l 642 643 l 386 972 l 99 972 l 99 0 l 371 0 l 371 578 l 614 285 l 663 285 l 911 579 z "},"N":{"ha":1110,"x_min":0,"x_max":0,"o":"m 332 972 l 99 972 l 99 0 l 376 0 l 376 311 l 372 524 l 778 0 l 1011 0 l 1011 972 l 735 972 l 735 639 b 743 440 736 601 736 557 z "},"O":{"ha":1169,"x_min":0,"x_max":0,"o":"m 1125 486 b 585 996 1125 810 904 996 b 44 486 267 996 44 806 b 585 -24 44 161 267 -24 b 1125 486 904 -24 1125 161 z m 850 486 b 585 211 850 325 746 211 b 319 486 429 211 319 324 b 585 761 319 647 428 761 b 850 486 746 761 850 653 z "},"P":{"ha":985,"x_min":0,"x_max":0,"o":"m 374 736 l 571 736 b 686 614 646 736 686 678 b 571 494 686 550 647 494 l 374 494 z m 571 263 b 961 618 831 265 961 419 b 571 972 961 808 832 972 l 99 972 l 99 0 l 374 0 l 374 263 z "},"Q":{"ha":1165,"x_min":0,"x_max":0,"o":"m 1119 488 b 582 996 1119 807 901 996 b 44 488 264 996 44 807 b 582 -22 44 168 264 -22 b 842 31 679 -22 765 -6 l 964 -94 l 1147 86 l 1038 199 b 1119 488 1089 279 1119 378 z m 844 488 b 582 213 844 315 743 213 b 317 488 426 213 317 318 b 582 763 317 649 426 763 b 844 488 743 763 844 649 z "},"R":{"ha":1024,"x_min":0,"x_max":0,"o":"m 999 17 l 746 344 b 951 638 910 417 951 518 b 574 972 951 813 822 972 l 99 972 l 99 0 l 374 0 l 374 315 l 469 315 l 696 0 l 999 0 z m 574 753 b 681 632 646 753 681 693 b 576 519 681 574 649 519 l 374 519 l 374 753 z "},"S":{"ha":925,"x_min":0,"x_max":0,"o":"m 833 876 b 469 992 729 958 615 992 b 63 697 264 992 63 903 b 458 382 63 456 246 401 b 621 293 565 372 621 342 b 468 207 621 239 558 207 b 183 317 386 207 279 224 l 32 143 b 467 -28 167 1 292 -29 b 893 289 685 -26 893 68 b 499 611 893 513 692 590 b 338 697 403 621 338 631 b 469 769 338 749 403 769 b 697 703 554 769 631 753 z "},"T":{"ha":883,"x_min":0,"x_max":0,"o":"m 304 0 l 578 0 l 578 746 l 863 746 l 863 972 l 21 972 l 21 746 l 304 746 z "},"U":{"ha":1086,"x_min":0,"x_max":0,"o":"m 728 971 l 728 428 b 543 214 728 281 654 214 b 358 431 432 214 358 278 l 358 971 l 85 971 l 85 431 b 543 -21 85 133 258 -21 b 1001 428 828 -21 1003 140 l 1001 971 z "},"V":{"ha":1040,"x_min":0,"x_max":0,"o":"m 1058 972 l 754 972 l 643 681 l 519 321 l 397 681 l 286 972 l -18 972 l 386 -4 l 654 -4 z "},"W":{"ha":1481,"x_min":0,"x_max":0,"o":"m 1489 972 l 1189 972 l 1072 638 b 1018 406 1050 557 1032 479 l 833 972 l 643 972 l 464 406 b 413 631 450 478 436 557 l 288 972 l -12 972 l 350 1 l 572 1 l 739 467 l 911 1 l 1135 1 z "},"X":{"ha":992,"x_min":0,"x_max":0,"o":"m 406 824 l 315 972 l 19 972 l 19 957 l 325 489 l -1 11 l -1 0 l 297 0 l 386 132 l 496 315 l 604 135 l 694 0 l 993 0 l 993 11 l 667 489 l 972 957 l 972 972 l 676 972 l 588 826 l 496 651 z "},"Y":{"ha":1003,"x_min":0,"x_max":0,"o":"m 301 972 l -8 972 l -8 961 l 361 388 l 361 0 l 636 0 l 636 388 l 1022 960 l 1022 972 l 713 972 l 503 639 z "},"Z":{"ha":893,"x_min":0,"x_max":0,"o":"m 58 750 l 469 750 l 35 86 l 35 0 l 849 0 l 849 238 l 413 238 l 838 894 l 838 972 l 58 972 z "},"a":{"ha":900,"x_min":0,"x_max":0,"o":"m 572 613 b 371 701 536 668 468 701 b 38 343 171 701 38 546 b 351 -12 38 143 150 0 b 578 74 428 -17 519 7 l 589 0 l 825 0 l 825 686 l 585 686 z m 429 494 b 571 343 519 494 571 435 b 429 193 571 263 515 193 b 292 343 353 193 292 247 b 429 494 292 439 353 494 z "},"b":{"ha":893,"x_min":0,"x_max":0,"o":"m 331 972 l 75 972 l 75 0 l 303 0 l 314 74 b 540 -12 372 7 464 -17 b 854 343 742 0 854 126 b 521 701 854 553 721 701 b 331 628 433 701 368 674 z m 463 494 b 600 343 539 494 600 439 b 463 193 600 247 539 193 b 325 336 376 193 325 264 b 463 494 325 419 372 494 z "},"c":{"ha":721,"x_min":0,"x_max":0,"o":"m 564 256 b 436 199 529 218 483 199 b 288 340 339 199 288 265 b 438 497 288 426 340 497 b 556 447 483 497 522 482 l 692 594 b 422 701 619 667 521 701 b 38 342 229 701 38 592 b 426 -14 38 85 226 -14 b 710 103 529 -14 628 29 z "},"d":{"ha":893,"x_min":0,"x_max":0,"o":"m 563 628 b 372 701 525 674 460 701 b 39 343 172 701 39 553 b 353 -12 39 126 151 0 b 579 74 429 -17 521 7 l 590 0 l 818 0 l 818 972 l 563 972 z m 431 494 b 568 336 521 494 568 419 b 431 193 568 264 517 193 b 293 343 354 193 293 247 b 431 494 293 439 354 494 z "},"e":{"ha":819,"x_min":0,"x_max":0,"o":"m 297 435 b 546 435 314 547 539 543 z m 419 703 b 38 342 233 703 38 592 b 438 -15 38 92 221 -15 b 750 99 556 -15 668 22 l 625 239 b 449 183 581 206 524 183 b 296 271 393 183 314 210 l 775 271 b 419 703 833 542 663 703 z "},"f":{"ha":594,"x_min":0,"x_max":0,"o":"m 397 0 l 397 476 l 575 476 l 575 674 l 397 674 l 397 707 b 474 792 397 767 433 792 b 567 758 507 792 539 782 l 644 913 b 438 988 593 963 517 988 b 142 707 296 988 142 908 l 142 674 l 25 674 l 25 476 l 142 476 l 142 0 z "},"g":{"ha":854,"x_min":0,"x_max":0,"o":"m 47 -49 b 417 -386 33 -258 171 -386 b 806 -81 613 -386 806 -303 b 671 126 806 -43 797 54 b 796 354 750 183 794 268 b 731 539 799 415 781 483 l 819 644 l 635 776 b 561 682 613 747 585 713 b 419 708 515 699 467 708 b 38 357 207 708 38 572 b 419 11 38 144 189 11 b 543 -81 513 11 543 -31 b 417 -179 543 -147 483 -179 b 288 -49 349 -179 285 -156 z m 419 499 b 549 357 494 499 549 435 b 419 222 549 265 488 222 b 286 357 344 222 286 275 b 419 499 286 449 344 499 z "},"h":{"ha":851,"x_min":0,"x_max":0,"o":"m 75 972 l 75 0 l 332 0 l 332 363 b 439 481 333 443 389 481 b 532 379 490 481 529 457 l 532 0 l 786 0 l 786 381 b 517 701 786 611 656 701 b 333 613 435 701 382 675 l 333 972 z "},"i":{"ha":407,"x_min":0,"x_max":0,"o":"m 60 863 b 204 735 60 778 132 735 b 347 863 275 735 347 778 b 204 992 347 949 275 992 b 60 863 132 992 60 949 z m 75 0 l 75 675 l 332 675 l 332 0 z "},"j":{"ha":406,"x_min":0,"x_max":0,"o":"m 60 863 b 204 735 60 778 132 735 b 347 863 275 735 347 778 b 204 992 347 949 275 992 b 60 863 132 992 60 949 z m -49 -100 b 75 -32 26 -142 75 -117 l 75 675 l 331 675 l 331 -32 b -97 -279 331 -300 122 -386 z "},"k":{"ha":790,"x_min":0,"x_max":0,"o":"m 75 972 l 75 0 l 332 0 l 332 239 l 510 0 l 799 0 l 799 15 l 519 364 l 760 675 l 760 686 l 475 686 l 332 485 l 332 972 z "},"l":{"ha":403,"x_min":0,"x_max":0,"o":"m 75 974 l 75 0 l 328 0 l 328 974 z "},"m":{"ha":1225,"x_min":0,"x_max":0,"o":"m 743 0 l 743 378 b 832 482 743 453 789 482 b 903 381 869 482 903 453 l 903 0 l 1158 0 l 1158 382 b 896 701 1158 610 1044 701 b 668 603 801 701 725 674 b 497 700 633 667 567 699 b 308 613 426 701 351 672 l 290 686 l 75 686 l 75 0 l 329 0 l 329 376 b 419 486 331 451 376 486 b 492 381 465 486 492 460 l 492 0 z "},"n":{"ha":864,"x_min":0,"x_max":0,"o":"m 797 0 l 797 381 b 529 703 797 625 674 701 b 313 611 457 704 371 679 l 301 686 l 75 686 l 75 0 l 328 0 l 328 361 b 446 493 328 451 385 493 b 542 379 493 493 542 464 l 542 0 z "},"o":{"ha":858,"x_min":0,"x_max":0,"o":"m 429 701 b 38 342 231 701 38 596 b 429 -17 38 92 232 -17 b 821 342 622 -17 821 92 b 429 701 821 592 632 701 z m 429 193 b 288 342 339 193 288 263 b 429 492 288 421 339 492 b 571 342 519 492 571 421 b 429 193 571 258 515 193 z "},"p":{"ha":893,"x_min":0,"x_max":0,"o":"m 331 58 b 521 -15 368 13 433 -15 b 854 343 721 -15 854 133 b 540 699 854 560 742 686 b 314 613 464 703 372 679 l 303 686 l 75 686 l 75 -286 l 331 -286 z m 463 192 b 325 350 372 192 325 267 b 463 493 325 422 376 493 b 600 343 539 493 600 439 b 463 192 600 247 539 192 z "},"q":{"ha":893,"x_min":0,"x_max":0,"o":"m 563 -286 l 818 -286 l 818 686 l 590 686 l 579 613 b 353 699 521 679 429 703 b 39 343 151 686 39 560 b 372 -15 39 133 172 -15 b 563 58 460 -15 525 13 z m 431 192 b 293 343 354 192 293 247 b 431 493 293 439 354 493 b 568 350 517 493 568 422 b 431 192 568 267 521 192 z "},"r":{"ha":656,"x_min":0,"x_max":0,"o":"m 75 686 l 75 0 l 331 0 l 331 357 b 449 486 331 447 385 486 b 564 444 492 486 522 478 l 667 629 b 486 703 622 676 556 703 b 319 611 419 703 356 675 l 304 686 z "},"s":{"ha":710,"x_min":0,"x_max":0,"o":"m 26 72 b 358 -18 104 15 239 -18 b 678 215 524 -18 678 46 b 363 442 678 397 506 438 b 311 475 321 443 311 463 b 372 508 311 500 336 508 b 544 467 428 510 507 490 l 653 619 b 372 703 586 669 483 703 b 56 478 211 703 56 643 b 350 253 56 311 217 257 b 422 215 400 249 422 238 b 353 182 422 193 399 182 b 110 258 297 185 214 190 z "},"t":{"ha":600,"x_min":0,"x_max":0,"o":"m 136 853 l 136 682 l 26 682 l 26 486 l 136 486 l 136 261 b 390 -17 132 46 254 -17 b 588 29 461 -17 529 -4 l 532 218 b 457 194 511 204 482 194 b 389 261 418 194 390 213 l 389 486 l 544 486 l 544 682 l 390 682 l 390 881 z "},"u":{"ha":864,"x_min":0,"x_max":0,"o":"m 67 686 l 67 306 b 335 -17 67 61 190 -15 b 551 75 407 -18 493 7 l 563 0 l 789 0 l 789 686 l 536 686 l 536 321 b 418 193 536 231 479 193 b 322 307 371 193 322 222 l 322 686 z "},"v":{"ha":818,"x_min":0,"x_max":0,"o":"m 260 686 l -11 686 l 285 -4 l 539 -4 l 822 686 l 551 686 l 478 494 l 408 272 l 335 494 z "},"w":{"ha":1161,"x_min":0,"x_max":0,"o":"m 504 686 l 383 304 l 331 497 l 265 686 l -1 686 l 249 -4 l 486 -4 l 581 256 l 676 -4 l 911 -4 l 1163 686 l 894 686 l 831 499 l 779 304 l 658 686 z "},"y":{"ha":808,"x_min":0,"x_max":0,"o":"m 547 686 l 483 524 l 400 285 l 325 522 l 267 686 l -4 686 l 268 31 l 129 -290 l 396 -290 l 821 686 z "},"z":{"ha":688,"x_min":0,"x_max":0,"o":"m 58 686 l 58 483 l 306 483 l 32 79 l 32 0 l 644 0 l 644 219 l 371 219 l 632 600 l 632 686 z "},"x":{"ha":786,"x_min":0,"x_max":0,"o":"m 460 76 l 504 0 l 786 0 l 557 346 l 764 674 l 764 686 l 489 686 l 442 601 l 393 506 l 344 603 l 297 686 l 22 686 l 22 674 l 231 344 l 0 0 l 282 0 l 326 76 l 393 193 z "},"ž":{"ha":688,"x_min":0,"x_max":0,"o":"m 632 686 l 632 600 l 371 219 l 644 219 l 644 0 l 32 0 l 32 79 l 306 483 l 58 483 l 58 686 z m 433 760 l 632 957 l 632 967 l 425 967 l 358 907 l 292 967 l 86 967 l 86 957 l 285 760 z "},"¨":{"ha":785,"x_min":0,"x_max":0,"o":"m 53 869 b 182 754 53 794 117 754 b 314 869 247 754 314 794 b 182 989 314 947 247 989 b 53 869 117 989 53 947 z m 456 869 b 588 754 456 794 521 754 b 718 869 651 754 718 794 b 588 989 718 947 651 989 b 456 869 521 989 456 947 z "},"´":{"ha":400,"x_min":0,"x_max":0,"o":"m 383 974 l 115 974 l 8 750 l 8 742 l 232 742 l 383 963 z "},"$":{"ha":951,"x_min":0,"x_max":0,"o":"m 360 -153 l 593 -153 l 593 -18 l 592 -18 b 906 289 764 11 906 107 b 511 611 906 513 704 590 b 350 697 415 621 350 631 b 482 769 350 749 415 769 b 710 703 567 769 643 753 l 846 876 b 593 983 769 936 688 969 l 593 1107 l 360 1107 l 360 981 b 75 697 203 951 75 861 b 471 382 75 456 258 401 b 633 293 578 372 633 342 b 481 207 633 239 571 207 b 196 317 399 207 292 224 l 44 143 b 360 -22 146 35 243 -8 z "},"Š":{"ha":925,"x_min":0,"x_max":0,"o":"m 697 703 b 469 769 631 753 554 769 b 338 697 403 769 338 749 b 499 611 338 631 403 621 b 893 289 692 590 893 513 b 467 -28 893 68 685 -26 b 32 143 292 -29 167 1 l 183 317 b 468 207 279 224 386 207 b 621 293 558 207 621 239 b 458 382 621 342 565 372 b 63 697 246 401 63 456 b 469 992 63 903 264 992 b 833 876 615 992 729 958 z m 558 1058 l 772 1267 l 772 1276 l 550 1276 l 478 1215 l 407 1276 l 185 1276 l 185 1267 l 399 1058 z "},"Œ":{"ha":1421,"x_min":0,"x_max":0,"o":"m 1360 217 l 929 217 l 929 399 l 1324 399 l 1324 607 l 929 607 l 929 763 l 1349 763 l 1349 974 l 732 974 b 557 996 672 986 617 996 b 46 490 217 996 46 786 b 557 -24 46 193 210 -24 b 738 0 622 -24 688 -15 l 1360 0 z m 308 489 b 567 799 308 651 413 799 b 696 776 611 799 650 794 l 696 199 b 574 176 656 181 614 176 b 308 489 397 176 308 326 z "},"š":{"ha":710,"x_min":0,"x_max":0,"o":"m 26 72 b 358 -18 104 15 239 -18 b 678 215 524 -18 678 46 b 363 442 678 397 506 438 b 311 475 321 443 311 463 b 372 508 311 500 336 508 b 544 467 428 510 507 490 l 653 619 b 372 703 586 669 483 703 b 56 478 211 703 56 643 b 350 253 56 311 217 257 b 422 215 400 249 422 238 b 353 182 422 193 399 182 b 110 258 297 185 214 190 z m 450 767 l 642 965 l 642 975 l 443 975 l 378 917 l 314 975 l 114 975 l 114 965 l 307 767 z "},"Ÿ":{"ha":1003,"x_min":0,"x_max":0,"o":"m 174 1176 b 303 1061 174 1101 238 1061 b 435 1176 368 1061 435 1101 b 303 1296 435 1254 368 1296 b 174 1176 238 1296 174 1254 z m 576 1176 b 708 1061 576 1101 642 1061 b 839 1176 772 1061 839 1101 b 708 1296 839 1254 772 1296 b 576 1176 642 1296 576 1254 z m 503 639 l 713 972 l 1022 972 l 1022 960 l 636 388 l 636 0 l 361 0 l 361 388 l -8 961 l -8 972 l 301 972 z "},"¥":{"ha":1107,"x_min":0,"x_max":0,"o":"m 193 153 l 411 153 l 411 0 l 681 0 l 681 153 l 903 153 l 903 318 l 681 318 l 681 375 l 903 375 l 903 551 l 792 551 l 1069 960 l 1069 972 l 764 972 l 656 800 l 550 607 l 447 801 l 344 972 l 39 972 l 39 961 l 304 551 l 193 551 l 193 375 l 411 375 l 411 318 l 193 318 z "},"¼":{"ha":1108,"x_min":0,"x_max":0,"o":"m 811 517 l 582 210 l 588 83 l 856 83 l 856 0 l 1000 0 l 1000 83 l 1061 83 l 1061 215 l 1000 215 l 1000 517 z m 856 215 l 742 215 b 856 360 785 267 814 308 z m 354 -1 l 896 978 l 725 978 l 186 -1 z m 58 449 l 379 449 l 379 583 l 293 583 l 293 972 l 71 914 l 71 786 b 143 800 90 789 122 796 l 143 583 l 58 583 z "},"¾":{"ha":1169,"x_min":0,"x_max":0,"o":"m 424 -8 l 968 978 l 797 978 l 254 -8 z m 874 517 l 643 210 l 649 83 l 917 83 l 917 0 l 1061 0 l 1061 83 l 1122 83 l 1122 215 l 1061 215 l 1061 517 z m 917 215 l 804 215 l 917 360 z m 267 674 b 332 632 310 674 332 656 b 264 589 332 601 299 589 b 199 626 233 589 203 597 l 49 626 b 265 460 50 508 158 460 b 486 619 361 460 486 489 b 415 726 486 664 465 707 b 472 821 451 744 472 785 b 264 985 472 939 360 985 b 58 822 169 985 58 936 l 188 822 b 260 860 192 847 226 860 b 328 822 301 860 328 846 b 261 781 328 800 310 781 l 183 781 l 183 674 z "},"½":{"ha":1128,"x_min":0,"x_max":0,"o":"m 344 -3 l 886 978 l 718 978 l 179 -3 z m 54 447 l 376 447 l 376 582 l 289 582 l 289 972 l 68 914 l 68 785 b 139 799 89 789 118 793 l 139 582 l 54 582 z m 797 351 b 864 390 803 378 833 390 b 925 350 893 390 925 378 b 831 297 925 318 881 308 b 649 131 749 278 649 253 l 649 -7 l 1074 -7 l 1074 138 l 792 138 b 882 178 799 160 838 169 b 1078 350 968 197 1078 224 b 860 524 1078 467 983 524 b 651 351 754 524 653 463 z "},"Ž":{"ha":893,"x_min":0,"x_max":0,"o":"m 58 972 l 838 972 l 838 894 l 413 238 l 849 238 l 849 0 l 35 0 l 35 86 l 469 750 l 58 750 z m 547 1056 l 758 1274 l 758 1285 l 539 1285 l 468 1219 l 397 1285 l 178 1285 l 178 1274 l 389 1056 z "},"Æ":{"ha":1285,"x_min":0,"x_max":0,"o":"m -36 0 l 240 0 l 328 146 l 617 146 l 617 0 l 1228 0 l 1228 218 l 869 218 l 869 388 l 1183 388 l 1183 600 l 869 600 l 869 753 l 1207 753 l 1207 972 l 540 972 l -36 15 z m 465 386 l 638 719 l 621 547 l 617 386 z "},"Ë":{"ha":933,"x_min":0,"x_max":0,"o":"m 876 0 l 99 0 l 99 972 l 857 972 l 857 742 l 369 742 l 369 603 l 829 603 l 829 379 l 369 379 l 369 232 l 876 232 z m 156 1161 b 285 1046 156 1086 219 1046 b 417 1161 350 1046 417 1086 b 285 1281 417 1239 350 1281 b 156 1161 219 1281 156 1239 z m 558 1161 b 690 1046 558 1086 624 1046 b 821 1161 754 1046 821 1086 b 690 1281 821 1239 754 1281 b 558 1161 624 1281 558 1239 z "},"Ê":{"ha":933,"x_min":0,"x_max":0,"o":"m 876 0 l 99 0 l 99 972 l 857 972 l 857 742 l 369 742 l 369 603 l 829 603 l 829 379 l 369 379 l 369 232 l 876 232 z m 411 1267 l 200 1049 l 200 1038 l 419 1038 l 490 1103 l 561 1038 l 781 1038 l 781 1049 l 569 1267 z "},"É":{"ha":933,"x_min":0,"x_max":0,"o":"m 876 0 l 99 0 l 99 972 l 857 972 l 857 742 l 369 742 l 369 603 l 829 603 l 829 379 l 369 379 l 369 232 l 876 232 z m 736 1275 l 468 1275 l 361 1051 l 361 1043 l 585 1043 l 736 1264 z "},"È":{"ha":933,"x_min":0,"x_max":0,"o":"m 876 232 l 369 232 l 369 379 l 829 379 l 829 603 l 369 603 l 369 742 l 857 742 l 857 972 l 99 972 l 99 0 l 876 0 z m 246 1264 l 397 1043 l 621 1043 l 621 1051 l 514 1275 l 246 1275 z "},"Ð":{"ha":1074,"x_min":0,"x_max":0,"o":"m 10 390 l 118 390 l 118 0 l 506 0 b 1026 501 860 0 1026 226 b 506 972 1026 767 840 972 l 118 972 l 118 588 l 10 588 z m 383 390 l 551 390 l 551 588 l 383 588 l 383 753 l 506 753 b 754 501 665 753 756 671 b 506 225 753 331 675 225 l 383 225 z "},"ñ":{"ha":864,"x_min":0,"x_max":0,"o":"m 797 0 l 797 381 b 529 703 797 625 674 701 b 313 611 457 704 371 679 l 301 686 l 75 686 l 75 0 l 328 0 l 328 361 b 446 493 328 451 385 493 b 542 379 493 493 542 464 l 542 0 z m 438 813 b 704 922 558 746 661 794 l 583 1011 b 449 986 549 947 504 953 b 181 883 351 1046 224 1013 l 307 793 b 438 813 332 854 383 847 z "},"Ă":{"ha":1107,"x_min":0,"x_max":0,"o":"m 833 0 l 1128 0 l 693 972 l 415 972 l -21 0 l 271 0 l 335 160 l 769 160 z m 676 390 l 428 390 l 553 700 z m 299 1256 b 553 1032 294 1114 400 1032 b 808 1256 707 1032 813 1114 l 614 1256 b 553 1197 614 1204 569 1197 b 493 1256 538 1197 493 1204 z "},"ă":{"ha":900,"x_min":0,"x_max":0,"o":"m 572 613 b 371 701 536 668 468 701 b 38 343 171 701 38 546 b 351 -12 38 143 150 0 b 578 74 428 -17 519 7 l 589 0 l 825 0 l 825 686 l 585 686 z m 429 494 b 571 343 519 494 571 435 b 429 193 571 263 515 193 b 292 343 353 193 292 247 b 429 494 292 439 353 494 z m 213 992 b 464 775 208 856 313 775 b 715 992 615 775 719 856 l 524 992 b 464 936 524 942 479 936 b 404 992 449 936 404 942 z "},"Ą":{"ha":1107,"x_min":0,"x_max":0,"o":"m 807 68 b 706 -126 729 36 688 -37 b 1136 -212 742 -300 1022 -314 l 1039 -89 b 913 -74 1010 -103 928 -115 b 1128 0 897 -33 931 19 l 693 972 l 415 972 l -21 0 l 271 0 l 335 160 l 769 160 z m 676 390 l 428 390 l 553 700 z "},"ą":{"ha":900,"x_min":0,"x_max":0,"o":"m 572 613 b 371 701 536 668 468 701 b 38 343 171 701 38 546 b 351 -12 38 143 150 0 b 583 79 428 -17 528 4 l 603 7 b 524 -153 542 -21 508 -79 b 889 -226 554 -299 783 -308 l 811 -119 b 697 -108 786 -132 707 -144 b 825 -54 682 -46 782 -42 l 825 686 l 585 686 z m 429 494 b 571 343 519 494 571 435 b 429 193 571 263 515 193 b 292 343 353 193 292 247 b 429 494 292 439 353 494 z "},"Ć":{"ha":982,"x_min":0,"x_max":0,"o":"m 968 126 b 578 -25 858 18 725 -25 b 46 479 196 -25 47 215 b 578 994 44 729 213 994 b 954 839 718 994 844 946 l 785 672 b 578 757 715 739 643 757 b 318 478 390 757 317 604 b 578 208 319 351 386 208 b 807 307 643 208 738 236 z m 786 1276 l 532 1276 l 431 1064 l 431 1056 l 643 1056 l 786 1265 z "},"ć":{"ha":721,"x_min":0,"x_max":0,"o":"m 710 103 b 426 -14 628 29 529 -14 b 38 342 226 -14 38 85 b 422 701 38 592 229 701 b 692 594 521 701 619 667 l 556 447 b 438 497 522 482 483 497 b 288 340 340 497 288 426 b 436 199 288 265 339 199 b 564 256 483 199 529 218 z m 618 972 l 375 972 l 278 769 l 278 763 l 482 763 l 618 963 z "},"Ĉ":{"ha":982,"x_min":0,"x_max":0,"o":"m 968 126 b 578 -25 858 18 725 -25 b 46 479 196 -25 47 215 b 578 994 44 729 213 994 b 954 839 718 994 844 946 l 785 672 b 578 757 715 739 643 757 b 318 478 390 757 317 604 b 578 208 319 351 386 208 b 807 307 643 208 738 236 z m 486 1306 l 275 1088 l 275 1076 l 494 1076 l 565 1142 l 636 1076 l 856 1076 l 856 1088 l 644 1306 z "},"ĉ":{"ha":721,"x_min":0,"x_max":0,"o":"m 710 103 b 426 -14 628 29 529 -14 b 38 342 226 -14 38 85 b 422 701 38 592 229 701 b 692 594 521 701 619 667 l 556 447 b 438 497 522 482 483 497 b 288 340 340 497 288 426 b 436 199 288 265 339 199 b 564 256 483 199 529 218 z m 342 976 l 147 774 l 147 764 l 350 764 l 415 824 l 481 764 l 685 764 l 685 774 l 489 976 z "},"Ċ":{"ha":982,"x_min":0,"x_max":0,"o":"m 968 126 b 578 -25 858 18 725 -25 b 46 479 196 -25 47 215 b 578 994 44 729 213 994 b 954 839 718 994 844 946 l 785 672 b 578 757 715 739 643 757 b 318 478 390 757 317 604 b 578 208 319 351 386 208 b 807 307 643 208 738 236 z m 432 1192 b 569 1076 432 1115 500 1076 b 707 1192 638 1076 707 1115 b 569 1307 707 1268 638 1307 b 432 1192 500 1307 432 1268 z "},"ċ":{"ha":721,"x_min":0,"x_max":0,"o":"m 710 103 b 426 -14 628 29 529 -14 b 38 342 226 -14 38 85 b 422 701 38 592 229 701 b 692 594 521 701 619 667 l 556 447 b 438 497 522 482 483 497 b 288 340 340 497 288 426 b 436 199 288 265 339 199 b 564 256 483 199 529 218 z m 292 886 b 417 776 292 814 354 776 b 542 886 479 776 542 814 b 417 996 542 960 479 996 b 292 886 354 996 292 960 z "},"Č":{"ha":982,"x_min":0,"x_max":0,"o":"m 968 126 b 578 -25 858 18 725 -25 b 46 479 196 -25 47 215 b 578 994 44 729 213 994 b 954 839 718 994 844 946 l 785 672 b 578 757 715 739 643 757 b 318 478 390 757 317 604 b 578 208 319 351 386 208 b 807 307 643 208 738 236 z m 651 1057 l 863 1260 l 863 1269 l 643 1269 l 572 1210 l 500 1269 l 281 1269 l 281 1260 l 492 1057 z "},"č":{"ha":721,"x_min":0,"x_max":0,"o":"m 710 103 b 426 -14 628 29 529 -14 b 38 342 226 -14 38 85 b 422 701 38 592 229 701 b 692 594 521 701 619 667 l 556 447 b 438 497 522 482 483 497 b 288 340 340 497 288 426 b 436 199 288 265 339 199 b 564 256 483 199 529 218 z m 483 767 l 681 961 l 681 971 l 475 971 l 410 913 l 343 971 l 139 971 l 139 961 l 336 767 z "},"Ď":{"ha":1071,"x_min":0,"x_max":0,"o":"m 515 972 b 1024 493 858 972 1024 761 b 515 0 1024 225 864 0 l 99 0 l 99 972 z m 371 232 l 515 232 b 751 496 690 232 751 363 b 515 743 751 629 683 743 l 371 743 z m 553 1061 l 781 1263 l 781 1272 l 543 1272 l 467 1213 l 390 1272 l 151 1272 l 151 1263 l 381 1061 z "},"ď":{"ha":1003,"x_min":0,"x_max":0,"o":"m 563 628 b 372 701 525 674 460 701 b 39 343 172 701 39 553 b 353 -12 39 126 151 0 b 579 74 429 -17 521 7 l 590 0 l 818 0 l 818 972 l 563 972 z m 431 494 b 568 336 521 494 568 419 b 431 193 568 264 517 193 b 293 343 354 193 293 247 b 431 494 293 439 354 494 z m 853 667 l 1017 667 l 1124 974 l 914 974 z "},"Đ":{"ha":1065,"x_min":0,"x_max":0,"o":"m 24 396 l 106 396 l 106 0 l 522 0 b 1018 489 871 0 1022 243 b 522 972 1014 729 867 972 l 106 972 l 106 588 l 24 588 z m 374 396 l 508 396 l 508 588 l 374 588 l 374 740 l 522 740 b 746 492 681 740 742 613 b 522 232 750 364 689 232 l 374 232 z "},"đ":{"ha":893,"x_min":0,"x_max":0,"o":"m 446 754 l 563 754 l 563 628 b 372 701 525 674 460 701 b 39 343 172 701 39 553 b 353 -12 39 126 151 0 b 579 74 429 -17 521 7 l 590 0 l 818 0 l 818 754 l 904 754 l 904 907 l 818 907 l 818 972 l 563 972 l 563 907 l 446 907 z m 431 494 b 568 336 521 494 568 419 b 431 193 568 264 517 193 b 293 343 354 193 293 247 b 431 494 293 439 354 494 z "},"Ĕ":{"ha":933,"x_min":0,"x_max":0,"o":"m 876 232 l 369 232 l 369 379 l 829 379 l 829 603 l 369 603 l 369 742 l 857 742 l 857 972 l 99 972 l 99 0 l 876 0 z m 242 1251 b 488 1042 238 1119 340 1042 b 733 1251 636 1042 738 1119 l 546 1251 b 488 1197 546 1204 503 1197 b 429 1251 472 1197 429 1204 z "},"ĕ":{"ha":819,"x_min":0,"x_max":0,"o":"m 297 435 b 546 435 314 547 539 543 z m 419 703 b 38 342 233 703 38 592 b 438 -15 38 92 221 -15 b 750 99 556 -15 668 22 l 625 239 b 449 183 581 206 524 183 b 296 271 393 183 314 210 l 775 271 b 419 703 833 542 663 703 z m 192 986 b 440 768 186 849 290 768 b 689 986 590 768 693 849 l 499 986 b 440 931 499 936 456 931 b 381 986 424 931 381 936 z "},"Ė":{"ha":933,"x_min":0,"x_max":0,"o":"m 876 0 l 99 0 l 99 972 l 857 972 l 857 742 l 369 742 l 369 603 l 829 603 l 829 379 l 369 379 l 369 232 l 876 232 z m 357 1174 b 503 1056 357 1094 429 1056 b 649 1174 575 1056 649 1094 b 503 1292 649 1251 575 1292 b 357 1174 429 1292 357 1251 z "},"ė":{"ha":819,"x_min":0,"x_max":0,"o":"m 297 435 b 546 435 314 547 539 543 z m 419 703 b 38 342 233 703 38 592 b 438 -15 38 92 221 -15 b 750 99 556 -15 668 22 l 625 239 b 449 183 581 206 524 183 b 296 271 393 183 314 210 l 775 271 b 419 703 833 542 663 703 z m 289 876 b 429 758 289 797 358 758 b 569 876 499 758 569 797 b 429 996 569 956 499 996 b 289 876 358 996 289 956 z "},"Ę":{"ha":933,"x_min":0,"x_max":0,"o":"m 876 232 l 369 232 l 369 379 l 829 379 l 829 603 l 369 603 l 369 742 l 857 742 l 857 972 l 99 972 l 99 0 l 590 0 b 547 -197 521 -42 500 -136 b 944 -192 632 -307 850 -272 l 850 -75 b 731 -71 824 -89 750 -106 b 876 0 711 -36 744 14 z "},"ę":{"ha":821,"x_min":0,"x_max":0,"o":"m 419 703 b 38 342 233 703 38 592 b 396 -14 38 107 199 0 b 360 -156 347 -46 333 -103 b 746 -172 425 -274 663 -275 l 658 -61 b 525 -54 619 -93 536 -93 b 564 0 519 -29 536 -10 b 750 99 633 17 697 50 l 625 239 b 449 183 581 206 524 183 b 296 271 393 183 314 210 l 775 271 b 419 703 833 542 663 703 z m 297 435 b 546 435 314 547 539 543 z "},"Ě":{"ha":933,"x_min":0,"x_max":0,"o":"m 876 0 l 99 0 l 99 972 l 857 972 l 857 742 l 369 742 l 369 603 l 829 603 l 829 379 l 369 379 l 369 232 l 876 232 z m 574 1042 l 786 1240 l 786 1251 l 565 1251 l 494 1192 l 422 1251 l 201 1251 l 201 1240 l 414 1042 z "},"ě":{"ha":819,"x_min":0,"x_max":0,"o":"m 297 435 b 546 435 314 547 539 543 z m 419 703 b 38 342 233 703 38 592 b 438 -15 38 92 221 -15 b 750 99 556 -15 668 22 l 625 239 b 449 183 581 206 524 183 b 296 271 393 183 314 210 l 775 271 b 419 703 833 542 663 703 z m 507 764 l 718 961 l 718 971 l 499 971 l 428 911 l 358 971 l 139 971 l 139 961 l 350 764 z "},"Ĝ":{"ha":1050,"x_min":0,"x_max":0,"o":"m 799 685 b 576 769 728 751 642 769 b 315 485 418 769 315 675 b 576 206 315 360 381 206 b 764 256 628 206 708 215 l 764 381 l 518 381 l 518 596 l 993 596 l 993 164 b 575 -26 932 40 763 -26 b 44 485 190 -26 44 231 b 576 1000 44 739 211 1000 b 958 843 711 1000 831 972 z m 482 1283 l 263 1075 l 263 1065 l 490 1065 l 564 1128 l 638 1065 l 865 1065 l 865 1075 l 646 1283 z "},"ĝ":{"ha":847,"x_min":0,"x_max":0,"o":"m 47 -49 b 417 -386 33 -258 171 -386 b 806 -81 613 -386 806 -303 b 671 126 806 -43 797 54 b 796 354 750 183 794 268 b 731 539 799 415 781 483 l 804 628 l 621 763 l 561 682 b 419 708 515 699 467 708 b 38 357 207 708 38 572 b 419 11 38 144 189 11 b 543 -81 513 11 543 -31 b 417 -179 543 -147 483 -179 b 288 -49 349 -179 285 -156 z m 419 499 b 549 357 494 499 549 435 b 419 222 549 265 488 222 b 286 357 344 222 286 275 b 419 499 286 449 344 499 z m 351 1015 l 122 803 l 122 793 l 360 793 l 436 856 l 514 793 l 750 793 l 750 803 l 522 1015 z "},"Ğ":{"ha":1050,"x_min":0,"x_max":0,"o":"m 958 843 b 576 1000 831 972 711 1000 b 44 485 211 1000 44 739 b 575 -26 44 231 190 -26 b 993 164 763 -26 932 40 l 993 596 l 518 596 l 518 381 l 764 381 l 764 256 b 576 206 708 215 628 206 b 315 485 381 206 315 360 b 576 769 315 675 418 769 b 799 685 642 769 728 751 z m 307 1288 b 564 1065 301 1147 408 1065 b 821 1288 719 1065 825 1147 l 625 1288 b 564 1229 625 1236 579 1229 b 503 1288 547 1229 503 1236 z "},"ğ":{"ha":854,"x_min":0,"x_max":0,"o":"m 47 -49 b 417 -386 33 -258 171 -386 b 806 -81 613 -386 806 -303 b 671 126 806 -43 797 54 b 796 354 750 183 794 268 b 731 539 799 415 781 483 l 819 644 l 635 776 b 561 682 613 747 585 713 b 419 708 515 699 467 708 b 38 357 207 708 38 572 b 419 11 38 144 189 11 b 543 -81 513 11 543 -31 b 417 -179 543 -147 483 -179 b 288 -49 349 -179 285 -156 z m 419 499 b 549 357 494 499 549 435 b 419 222 549 265 488 222 b 286 357 344 222 286 275 b 419 499 286 449 344 499 z m 160 1000 b 417 781 154 861 261 781 b 674 1000 572 781 678 861 l 478 1000 b 417 943 478 950 432 943 b 356 1000 400 943 356 950 z "},"Ġ":{"ha":1050,"x_min":0,"x_max":0,"o":"m 799 685 b 576 769 728 751 642 769 b 315 485 418 769 315 675 b 576 206 315 360 381 206 b 764 256 628 206 708 215 l 764 381 l 518 381 l 518 596 l 993 596 l 993 164 b 575 -26 932 40 763 -26 b 44 485 190 -26 44 231 b 576 1000 44 739 211 1000 b 958 843 711 1000 831 972 z m 428 1192 b 574 1068 428 1110 500 1068 b 718 1192 644 1068 718 1110 b 574 1315 718 1274 644 1315 b 428 1192 500 1315 428 1274 z "},"ġ":{"ha":854,"x_min":0,"x_max":0,"o":"m 47 -49 b 417 -386 33 -258 171 -386 b 806 -81 613 -386 806 -303 b 671 126 806 -43 797 54 b 796 354 750 183 794 268 b 731 539 799 415 781 483 l 819 644 l 635 776 b 561 682 613 747 585 713 b 419 708 515 699 467 708 b 38 357 207 708 38 572 b 419 11 38 144 189 11 b 543 -81 513 11 543 -31 b 417 -179 543 -147 483 -179 b 288 -49 349 -179 285 -156 z m 419 499 b 549 357 494 499 549 435 b 419 222 549 265 488 222 b 286 357 344 222 286 275 b 419 499 286 449 344 499 z m 281 903 b 425 779 281 821 353 779 b 569 903 497 779 569 821 b 425 1026 569 985 497 1026 b 281 903 353 1026 281 985 z "},"Ģ":{"ha":1050,"x_min":0,"x_max":0,"o":"m 958 843 b 576 1000 831 972 711 1000 b 44 485 211 1000 44 739 b 575 -26 44 231 190 -26 b 993 164 763 -26 932 40 l 993 596 l 518 596 l 518 381 l 764 381 l 764 256 b 576 206 708 215 628 206 b 315 485 381 206 315 360 b 576 769 315 675 418 769 b 799 685 642 769 728 751 z m 694 -196 b 571 -85 694 -121 635 -85 b 435 -194 501 -85 435 -122 b 510 -285 435 -233 449 -274 l 479 -424 l 614 -424 b 694 -196 668 -315 694 -240 z "},"ģ":{"ha":854,"x_min":0,"x_max":0,"o":"m 290 906 b 431 796 289 835 361 796 b 569 908 497 796 568 832 b 501 986 571 950 549 972 l 525 1108 l 363 1108 b 290 906 333 1042 293 974 z m 47 -49 b 417 -386 33 -258 171 -386 b 806 -81 613 -386 806 -303 b 671 126 806 -43 797 54 b 796 354 750 183 794 268 b 731 539 799 415 781 483 l 819 644 l 635 776 b 561 682 613 747 585 713 b 419 708 515 699 467 708 b 38 357 207 708 38 572 b 419 11 38 144 189 11 b 543 -81 513 11 543 -31 b 417 -179 543 -147 483 -179 b 288 -49 349 -179 285 -156 z m 419 499 b 549 357 494 499 549 435 b 419 222 549 265 488 222 b 286 357 344 222 286 275 b 419 499 286 449 344 499 z "},"Ĥ":{"ha":1094,"x_min":0,"x_max":0,"o":"m 724 0 l 724 368 l 374 368 l 374 0 l 99 0 l 99 972 l 374 972 l 374 603 l 724 603 l 724 972 l 996 972 l 996 0 z m 457 1286 l 235 1069 l 235 1058 l 467 1058 l 540 1122 l 615 1058 l 846 1058 l 846 1069 l 624 1286 z "},"ĥ":{"ha":851,"x_min":0,"x_max":0,"o":"m 333 972 l 333 613 b 517 701 382 675 435 701 b 786 381 656 701 786 611 l 786 0 l 532 0 l 532 379 b 439 481 529 457 490 481 b 332 363 389 481 333 443 l 332 0 l 75 0 l 75 972 z m 344 1265 l 142 1054 l 142 1044 l 351 1044 l 419 1107 l 488 1044 l 699 1044 l 699 1054 l 496 1265 z "},"Ħ":{"ha":1108,"x_min":0,"x_max":0,"o":"m 1003 -1 l 1003 696 l 1089 696 l 1089 853 l 1003 853 l 1003 971 l 731 971 l 731 853 l 381 853 l 381 971 l 106 971 l 106 853 l 24 853 l 24 696 l 106 696 l 106 -1 l 381 -1 l 381 360 l 731 360 l 731 -1 z m 381 593 l 381 696 l 731 696 l 731 593 z "},"ħ":{"ha":851,"x_min":0,"x_max":0,"o":"m -1 749 l 75 749 l 75 0 l 332 0 l 332 363 b 439 481 333 443 389 481 b 532 379 490 481 529 457 l 532 0 l 786 0 l 786 381 b 517 701 786 611 656 701 b 333 613 435 701 382 675 l 333 749 l 446 749 l 446 903 l 333 903 l 333 972 l 75 972 l 75 903 l -1 903 z "},"Ĩ":{"ha":471,"x_min":0,"x_max":0,"o":"m 372 0 l 372 972 l 99 972 l 99 0 z m 232 1086 b 519 1196 361 1018 472 1068 l 389 1285 b 244 1261 351 1221 303 1226 b -47 1157 139 1319 -1 1286 l 90 1067 b 232 1086 117 1126 172 1119 z "},"ĩ":{"ha":406,"x_min":0,"x_max":0,"o":"m 331 0 l 331 686 l 75 686 l 75 0 z m 203 790 b 432 897 306 725 394 772 l 328 983 b 213 960 299 922 260 928 b -21 858 128 1018 17 985 l 89 771 b 203 790 110 831 154 824 z "},"Ĭ":{"ha":471,"x_min":0,"x_max":0,"o":"m 372 0 l 372 972 l 99 972 l 99 0 z m -10 1282 b 235 1046 -14 1133 88 1046 b 479 1282 382 1046 483 1133 l 293 1282 b 235 1221 293 1228 250 1221 b 176 1282 219 1221 176 1228 z "},"ĭ":{"ha":406,"x_min":0,"x_max":0,"o":"m 331 0 l 331 686 l 75 686 l 75 0 z m -10 974 b 206 751 -14 833 75 751 b 421 974 335 751 424 833 l 257 974 b 206 917 257 922 218 917 b 154 974 192 917 154 922 z "},"Į":{"ha":471,"x_min":0,"x_max":0,"o":"m 250 -62 b 317 0 240 -28 274 -3 l 372 0 l 372 972 l 99 972 l 99 4 b 61 -168 53 -36 35 -108 b 449 -192 122 -306 357 -276 l 363 -76 b 250 -62 336 -89 260 -101 z "},"į":{"ha":408,"x_min":0,"x_max":0,"o":"m 61 863 b 206 735 61 778 133 735 b 349 863 276 735 349 778 b 206 992 349 949 276 992 b 61 863 133 992 61 949 z m 335 -21 b 200 -78 283 -10 185 -18 b 321 -87 210 -114 286 -111 l 397 -201 b 24 -128 301 -287 49 -287 b 76 14 14 -65 31 -24 l 76 675 l 333 675 l 333 0 z "},"İ":{"ha":471,"x_min":0,"x_max":0,"o":"m 99 0 l 99 972 l 372 972 l 372 0 z m 79 1160 b 231 1038 79 1078 154 1038 b 382 1160 306 1038 382 1078 b 231 1281 382 1240 306 1281 b 79 1160 154 1281 79 1240 z "},"Ĳ":{"ha":1482,"x_min":0,"x_max":0,"o":"m 372 0 l 372 972 l 99 972 l 99 0 z m 492 419 b 936 -21 492 115 656 -21 b 1397 419 1235 -21 1397 164 l 1397 972 l 864 972 l 864 742 l 1122 742 l 1122 421 b 939 218 1122 289 1054 218 b 760 419 843 218 763 274 z "},"ĳ":{"ha":813,"x_min":0,"x_max":0,"o":"m 60 863 b 204 735 60 778 132 735 b 347 863 275 735 347 778 b 204 992 347 949 275 992 b 60 863 132 992 60 949 z m 75 0 l 75 675 l 332 675 l 332 0 z m 467 863 b 611 735 467 778 539 735 b 754 863 682 735 754 778 b 611 992 754 949 682 992 b 467 863 539 992 467 949 z m 358 -100 b 482 -32 433 -142 482 -117 l 482 675 l 738 675 l 738 -32 b 310 -279 738 -300 529 -386 z "},"Ĵ":{"ha":1011,"x_min":0,"x_max":0,"o":"m 289 419 b 468 218 292 274 372 218 b 651 421 583 218 651 289 l 651 742 l 393 742 l 393 972 l 926 972 l 926 419 b 465 -21 926 164 764 -21 b 21 419 185 -21 21 115 z m 521 1283 l 301 1056 l 301 1043 l 531 1043 l 604 1111 l 678 1043 l 906 1043 l 906 1056 l 686 1283 z "},"ĵ":{"ha":406,"x_min":0,"x_max":0,"o":"m 100 1004 l -89 765 l -89 753 l 107 753 l 169 825 l 233 753 l 428 753 l 428 765 l 240 1004 z m -49 -100 b 75 -32 26 -142 75 -117 l 75 675 l 331 675 l 331 -32 b -97 -279 331 -300 122 -386 z "},"Ķ":{"ha":976,"x_min":0,"x_max":0,"o":"m 958 972 l 629 972 b 374 653 547 869 457 756 l 374 972 l 99 972 l 99 0 l 374 0 l 374 324 l 651 0 l 992 0 l 992 17 b 564 496 857 171 700 346 l 958 956 z m 624 -175 b 494 -65 624 -101 561 -65 b 353 -174 422 -65 353 -103 b 431 -262 353 -211 368 -251 l 400 -400 l 540 -400 b 624 -175 596 -293 624 -218 z "},"ķ":{"ha":790,"x_min":0,"x_max":0,"o":"m 75 972 l 75 0 l 332 0 l 332 239 l 510 0 l 799 0 l 799 15 l 519 364 l 760 675 l 760 686 l 475 686 l 332 485 l 332 972 z m 538 -174 b 414 -62 538 -99 478 -62 b 279 -172 344 -62 279 -100 b 353 -262 279 -211 293 -251 l 324 -401 l 457 -401 b 538 -174 511 -293 538 -218 z "},"ĸ":{"ha":790,"x_min":0,"x_max":0,"o":"m 75 688 l 75 0 l 332 0 l 332 239 l 510 0 l 799 0 l 799 15 l 519 364 l 760 675 l 760 686 l 475 686 l 332 485 l 332 688 z "},"Ĺ":{"ha":861,"x_min":0,"x_max":0,"o":"m 374 972 l 374 233 l 839 233 l 839 0 l 99 0 l 99 972 z m 492 1264 l 221 1264 l 113 1060 l 113 1051 l 339 1051 l 492 1254 z "},"ĺ":{"ha":403,"x_min":0,"x_max":0,"o":"m 328 974 l 328 0 l 75 0 l 75 974 z m 444 1258 l 189 1258 l 88 1058 l 88 1051 l 300 1051 l 444 1249 z "},"Ļ":{"ha":861,"x_min":0,"x_max":0,"o":"m 99 972 l 99 0 l 839 0 l 839 233 l 374 233 l 374 972 z m 597 -176 b 474 -62 597 -100 538 -62 b 339 -175 404 -62 339 -101 b 413 -268 339 -215 353 -257 l 383 -411 l 517 -411 b 597 -176 571 -300 597 -222 z "},"ļ":{"ha":403,"x_min":0,"x_max":0,"o":"m 75 974 l 75 0 l 328 0 l 328 974 z m 328 -183 b 204 -69 328 -107 268 -69 b 69 -182 135 -69 69 -108 b 143 -275 69 -222 83 -264 l 114 -418 l 247 -418 b 328 -183 301 -307 328 -229 z "},"Ľ":{"ha":864,"x_min":0,"x_max":0,"o":"m 99 972 l 99 0 l 839 0 l 839 233 l 374 233 l 374 972 z m 526 649 l 701 649 l 815 975 l 592 975 z "},"ľ":{"ha":532,"x_min":0,"x_max":0,"o":"m 75 975 l 75 0 l 328 0 l 328 975 z m 363 644 l 538 644 l 651 972 l 428 972 z "},"Ŀ":{"ha":861,"x_min":0,"x_max":0,"o":"m 99 972 l 99 0 l 839 0 l 839 233 l 374 233 l 374 972 z m 619 382 b 619 646 813 382 811 646 b 619 382 426 646 428 382 z "},"ŀ":{"ha":668,"x_min":0,"x_max":0,"o":"m 75 974 l 75 0 l 328 0 l 328 974 z m 536 340 b 536 604 729 340 728 604 b 536 340 343 604 344 340 z "},"Ń":{"ha":1110,"x_min":0,"x_max":0,"o":"m 743 440 b 735 639 736 557 736 601 l 735 972 l 1011 972 l 1011 0 l 778 0 l 372 524 l 376 311 l 376 0 l 99 0 l 99 972 l 332 972 z m 796 1276 l 513 1276 l 400 1058 l 400 1050 l 636 1050 l 796 1265 z "},"ń":{"ha":864,"x_min":0,"x_max":0,"o":"m 542 0 l 542 379 b 446 493 542 464 493 493 b 328 361 385 493 328 451 l 328 0 l 75 0 l 75 686 l 301 686 l 313 611 b 529 703 371 679 457 704 b 797 381 674 701 797 625 l 797 0 z m 664 989 l 411 989 l 311 779 l 311 771 l 521 771 l 664 979 z "},"Ņ":{"ha":1110,"x_min":0,"x_max":0,"o":"m 332 972 l 99 972 l 99 0 l 376 0 l 376 311 l 372 524 l 778 0 l 1011 0 l 1011 972 l 735 972 l 735 639 b 743 440 736 601 736 557 z m 697 -160 b 574 -46 697 -83 638 -46 b 439 -158 504 -46 439 -85 b 513 -251 439 -199 453 -240 l 483 -394 l 617 -394 b 697 -160 671 -283 697 -206 z "},"ņ":{"ha":864,"x_min":0,"x_max":0,"o":"m 797 0 l 797 381 b 529 703 797 625 674 701 b 313 611 457 704 371 679 l 301 686 l 75 686 l 75 0 l 328 0 l 328 361 b 446 493 328 451 385 493 b 542 379 493 493 542 464 l 542 0 z m 563 -168 b 439 -54 563 -92 503 -54 b 304 -167 369 -54 304 -93 b 378 -260 304 -207 318 -249 l 349 -403 l 482 -403 b 563 -168 536 -292 563 -214 z "},"Ň":{"ha":1110,"x_min":0,"x_max":0,"o":"m 743 440 b 735 639 736 557 736 601 l 735 972 l 1011 972 l 1011 0 l 778 0 l 372 524 l 376 311 l 376 0 l 99 0 l 99 972 l 332 972 z m 631 1046 l 842 1247 l 842 1257 l 622 1257 l 551 1197 l 482 1257 l 263 1257 l 263 1247 l 474 1046 z "},"ň":{"ha":864,"x_min":0,"x_max":0,"o":"m 542 0 l 542 379 b 446 493 542 464 493 493 b 328 361 385 493 328 451 l 328 0 l 75 0 l 75 686 l 301 686 l 313 611 b 529 703 371 679 457 704 b 797 381 674 701 797 625 l 797 0 z m 514 768 l 715 967 l 715 978 l 506 978 l 438 918 l 369 978 l 160 978 l 160 967 l 363 768 z "},"ŉ":{"ha":864,"x_min":0,"x_max":0,"o":"m 797 0 l 797 381 b 529 703 797 625 674 701 b 313 611 457 704 371 679 l 301 686 l 75 686 l 75 0 l 328 0 l 328 361 b 446 493 328 451 385 493 b 542 379 493 493 542 464 l 542 0 z "},"Ŋ":{"ha":1103,"x_min":0,"x_max":0,"o":"m 731 972 l 731 460 l 328 972 l 99 972 l 99 0 l 374 0 l 374 508 b 754 38 475 382 542 307 l 754 -32 b 625 -100 754 -117 700 -142 l 576 -279 b 1004 -32 840 -387 1004 -300 l 1004 972 z "},"ŋ":{"ha":864,"x_min":0,"x_max":0,"o":"m 369 -275 b 797 -35 589 -382 797 -294 l 797 381 b 529 703 797 625 674 701 b 313 611 457 704 371 679 l 301 686 l 75 686 l 75 0 l 328 0 l 328 361 b 446 493 328 451 385 493 b 544 379 493 493 544 464 l 544 -32 b 418 -100 544 -108 493 -142 l 369 -275 z "},"Ŏ":{"ha":1169,"x_min":0,"x_max":0,"o":"m 1125 486 b 585 996 1125 810 904 996 b 44 486 267 996 44 806 b 585 -24 44 161 267 -24 b 1125 486 904 -24 1125 161 z m 850 486 b 585 211 850 325 746 211 b 319 486 429 211 319 324 b 585 761 319 647 428 761 b 850 486 746 761 850 653 z m 329 1276 b 589 1057 325 1138 432 1057 b 849 1276 744 1057 853 1138 l 650 1276 b 589 1219 650 1226 604 1219 b 526 1276 572 1219 526 1226 z "},"ŏ":{"ha":858,"x_min":0,"x_max":0,"o":"m 429 701 b 38 342 231 701 38 596 b 429 -17 38 92 232 -17 b 821 342 622 -17 821 92 b 429 701 821 592 632 701 z m 429 193 b 288 342 339 193 288 263 b 429 492 288 421 339 492 b 571 342 519 492 571 421 b 429 193 571 258 515 193 z m 186 982 b 428 767 182 846 282 767 b 671 982 574 767 675 846 l 486 982 b 428 926 486 932 443 926 b 371 982 413 926 371 932 z "},"Ő":{"ha":1169,"x_min":0,"x_max":0,"o":"m 1125 486 b 585 -24 1125 161 904 -24 b 44 486 267 -24 44 161 b 585 996 44 806 267 996 b 1125 486 904 996 1125 810 z m 850 486 b 585 761 850 653 746 761 b 319 486 428 761 319 647 b 585 211 319 324 429 211 b 850 486 746 211 850 325 z m 446 1267 l 308 1060 l 539 1060 l 682 1257 l 682 1267 z m 761 1267 l 624 1060 l 854 1060 l 997 1257 l 997 1267 z "},"ő":{"ha":858,"x_min":0,"x_max":0,"o":"m 429 701 b 821 342 632 701 821 592 b 429 -17 821 92 622 -17 b 38 342 232 -17 38 92 b 429 701 38 596 231 701 z m 429 193 b 571 342 515 193 571 258 b 429 492 571 421 519 492 b 288 342 339 492 288 421 b 429 193 288 263 339 193 z m 303 967 l 174 767 l 390 767 l 525 957 l 525 967 z m 600 967 l 471 767 l 688 767 l 822 957 l 822 967 z "},"Ŕ":{"ha":1024,"x_min":0,"x_max":0,"o":"m 999 0 l 696 0 l 469 315 l 374 315 l 374 0 l 99 0 l 99 972 l 574 972 b 951 638 822 972 951 813 b 746 344 951 518 910 417 l 999 17 z m 374 753 l 374 519 l 576 519 b 681 632 649 519 681 574 b 574 753 681 693 646 753 z m 718 1282 l 450 1282 l 343 1067 l 343 1060 l 567 1060 l 718 1271 z "},"ŕ":{"ha":656,"x_min":0,"x_max":0,"o":"m 304 686 l 319 611 b 486 703 356 675 419 703 b 667 629 556 703 622 676 l 564 444 b 449 486 522 478 492 486 b 331 357 385 486 331 447 l 331 0 l 75 0 l 75 686 z m 554 979 l 304 979 l 206 783 l 206 776 l 413 776 l 554 969 z "},"Ŗ":{"ha":1024,"x_min":0,"x_max":0,"o":"m 999 17 l 746 344 b 951 638 910 417 951 518 b 574 972 951 813 822 972 l 99 972 l 99 0 l 374 0 l 374 315 l 469 315 l 696 0 l 999 0 z m 574 753 b 681 632 646 753 681 693 b 576 519 681 574 649 519 l 374 519 l 374 753 z m 647 -171 b 524 -57 647 -94 588 -57 b 389 -169 454 -57 389 -96 b 463 -262 389 -210 403 -251 l 433 -406 l 567 -406 b 647 -171 621 -294 647 -217 z "},"ŗ":{"ha":656,"x_min":0,"x_max":0,"o":"m 75 686 l 75 0 l 331 0 l 331 357 b 449 486 331 447 385 486 b 564 444 492 486 522 478 l 667 629 b 486 703 622 676 556 703 b 319 611 419 703 356 675 l 304 686 z m 326 -176 b 207 -65 326 -101 268 -65 b 76 -175 139 -65 76 -103 b 147 -265 76 -214 89 -254 l 119 -404 l 249 -404 b 326 -176 300 -296 326 -221 z "},"Ř":{"ha":1024,"x_min":0,"x_max":0,"o":"m 999 0 l 696 0 l 469 315 l 374 315 l 374 0 l 99 0 l 99 972 l 574 972 b 951 638 822 972 951 813 b 746 344 951 518 910 417 l 999 17 z m 374 753 l 374 519 l 576 519 b 681 632 649 519 681 574 b 574 753 681 693 646 753 z m 554 1049 l 767 1258 l 767 1269 l 546 1269 l 474 1206 l 403 1269 l 181 1269 l 181 1258 l 394 1049 z "},"ř":{"ha":656,"x_min":0,"x_max":0,"o":"m 304 686 l 319 611 b 486 703 356 675 419 703 b 667 629 556 703 622 676 l 564 444 b 449 486 522 478 492 486 b 331 357 385 486 331 447 l 331 0 l 75 0 l 75 686 z m 435 767 l 632 965 l 632 975 l 426 975 l 360 917 l 294 975 l 89 975 l 89 965 l 286 767 z "},"Ś":{"ha":925,"x_min":0,"x_max":0,"o":"m 697 703 b 469 769 631 753 554 769 b 338 697 403 769 338 749 b 499 611 338 631 403 621 b 893 289 692 590 893 513 b 467 -28 893 68 685 -26 b 32 143 292 -29 167 1 l 183 317 b 468 207 279 224 386 207 b 621 293 558 207 621 239 b 458 382 621 342 565 372 b 63 697 246 401 63 456 b 469 992 63 903 264 992 b 833 876 615 992 729 958 z m 700 1290 l 433 1290 l 328 1069 l 328 1061 l 550 1061 l 700 1279 z "},"ś":{"ha":710,"x_min":0,"x_max":0,"o":"m 26 72 b 358 -18 104 15 239 -18 b 678 215 524 -18 678 46 b 363 442 678 397 506 438 b 311 475 321 443 311 463 b 372 508 311 500 336 508 b 544 467 428 510 507 490 l 653 619 b 372 703 586 669 483 703 b 56 478 211 703 56 643 b 350 253 56 311 217 257 b 422 215 400 249 422 238 b 353 182 422 193 399 182 b 110 258 297 185 214 190 z m 594 985 l 347 985 l 250 779 l 250 772 l 456 772 l 594 975 z "},"Ŝ":{"ha":925,"x_min":0,"x_max":0,"o":"m 697 703 b 469 769 631 753 554 769 b 338 697 403 769 338 749 b 499 611 338 631 403 621 b 893 289 692 590 893 513 b 467 -28 893 68 685 -26 b 32 143 292 -29 167 1 l 183 317 b 468 207 279 224 386 207 b 621 293 558 207 621 239 b 458 382 621 342 565 372 b 63 697 246 401 63 456 b 469 992 63 903 264 992 b 833 876 615 992 729 958 z m 403 1279 l 192 1061 l 192 1050 l 411 1050 l 482 1115 l 553 1050 l 772 1050 l 772 1061 l 561 1279 z "},"ŝ":{"ha":710,"x_min":0,"x_max":0,"o":"m 26 72 b 358 -18 104 15 239 -18 b 678 215 524 -18 678 46 b 363 442 678 397 506 438 b 311 475 321 443 311 463 b 372 508 311 500 336 508 b 544 467 428 510 507 490 l 653 619 b 372 703 586 669 483 703 b 56 478 211 703 56 643 b 350 253 56 311 217 257 b 422 215 400 249 422 238 b 353 182 422 193 399 182 b 110 258 297 185 214 190 z m 303 983 l 101 771 l 101 760 l 311 760 l 378 824 l 446 760 l 656 760 l 656 771 l 454 983 z "},"Ş":{"ha":928,"x_min":0,"x_max":0,"o":"m 835 876 b 471 992 731 958 617 992 b 64 697 265 992 64 903 b 460 382 64 456 247 401 b 622 293 567 372 622 342 b 469 207 622 239 560 207 b 185 317 388 207 281 224 l 33 143 b 365 -24 140 31 242 -12 l 319 -139 l 360 -167 b 485 -210 411 -135 497 -164 b 326 -208 468 -267 369 -246 l 233 -303 b 672 -253 336 -426 618 -424 b 526 -62 701 -161 654 -75 l 540 -24 b 894 289 729 -3 894 92 b 500 611 894 513 693 590 b 339 697 404 621 339 631 b 471 769 339 749 404 769 b 699 703 556 769 632 753 z "},"ş":{"ha":713,"x_min":0,"x_max":0,"o":"m 28 72 b 276 -12 88 28 182 -1 l 226 -132 l 265 -158 b 379 -199 313 -129 390 -157 b 233 -194 365 -247 269 -228 l 150 -281 b 550 -240 240 -394 496 -396 b 415 -62 579 -156 533 -72 l 435 -12 b 679 215 568 4 679 72 b 364 442 679 397 507 438 b 313 475 322 443 313 463 b 374 508 313 500 338 508 b 546 467 429 510 508 490 l 654 619 b 374 703 588 669 485 703 b 57 478 213 703 57 643 b 351 253 57 311 218 257 b 424 215 401 249 424 238 b 354 182 424 193 400 182 b 111 258 299 185 215 190 z "},"Ţ":{"ha":883,"x_min":0,"x_max":0,"o":"m 196 -293 b 626 -249 286 -425 571 -422 b 488 -50 657 -154 610 -62 l 500 0 l 578 0 l 578 746 l 863 746 l 863 972 l 21 972 l 21 746 l 304 746 l 306 0 l 276 -129 l 315 -158 b 449 -204 364 -125 464 -147 b 283 -201 433 -262 324 -242 z "},"ţ":{"ha":603,"x_min":0,"x_max":0,"o":"m 138 853 l 138 682 l 28 682 l 28 486 l 138 486 l 138 261 b 257 10 135 121 185 46 l 197 -133 l 236 -160 b 354 -201 285 -131 367 -157 b 204 -199 339 -254 244 -235 l 115 -282 b 533 -242 217 -401 471 -408 b 394 -61 564 -156 517 -74 l 413 -17 b 589 29 475 -14 536 0 l 533 218 b 458 194 513 204 483 194 b 390 261 419 194 392 213 l 390 486 l 546 486 l 546 682 l 392 682 l 392 881 z "},"Ť":{"ha":883,"x_min":0,"x_max":0,"o":"m 304 746 l 21 746 l 21 972 l 863 972 l 863 746 l 578 746 l 578 0 l 304 0 z m 525 1043 l 736 1261 l 736 1272 l 517 1272 l 446 1207 l 375 1272 l 156 1272 l 156 1261 l 367 1043 z "},"ť":{"ha":733,"x_min":0,"x_max":0,"o":"m 136 853 l 136 682 l 26 682 l 26 486 l 136 486 l 136 261 b 390 -17 132 46 254 -17 b 588 29 461 -17 529 -4 l 532 218 b 457 194 511 204 482 194 b 389 261 418 194 390 213 l 389 486 l 510 486 l 510 682 l 390 682 l 390 881 z m 546 579 l 717 579 l 828 900 l 608 900 z "},"Ŧ":{"ha":896,"x_min":0,"x_max":0,"o":"m 150 378 l 310 378 l 310 0 l 583 0 l 583 378 l 750 378 l 750 574 l 583 574 l 583 743 l 868 743 l 868 972 l 26 972 l 26 743 l 310 743 l 310 574 l 150 574 z "},"ŧ":{"ha":599,"x_min":0,"x_max":0,"o":"m 51 279 l 135 279 l 135 261 b 389 -17 131 46 253 -17 b 586 29 460 -17 528 -4 l 531 218 b 456 194 510 204 481 194 b 388 261 417 194 389 213 l 388 279 l 501 279 l 501 421 l 388 421 l 388 486 l 543 486 l 543 682 l 389 682 l 389 881 l 135 853 l 135 682 l 25 682 l 25 486 l 135 486 l 135 421 l 51 421 z "},"Ũ":{"ha":1083,"x_min":0,"x_max":0,"o":"m 726 971 l 726 428 b 542 214 726 281 653 214 b 357 431 431 214 357 278 l 357 971 l 83 971 l 83 431 b 542 -21 83 133 257 -21 b 1000 428 826 -21 1001 140 l 1000 971 z m 525 1076 b 810 1192 653 1006 763 1057 l 679 1286 b 536 1261 643 1219 596 1225 b 249 1151 432 1324 294 1288 l 383 1056 b 525 1076 411 1119 465 1113 z "},"ũ":{"ha":864,"x_min":0,"x_max":0,"o":"m 67 686 l 67 306 b 335 -17 67 61 190 -15 b 551 75 407 -18 493 7 l 563 0 l 789 0 l 789 686 l 536 686 l 536 321 b 418 193 536 231 479 193 b 322 307 371 193 322 222 l 322 686 z m 429 796 b 710 915 556 722 664 775 l 582 1011 b 442 985 547 943 500 949 b 157 872 339 1050 203 1013 l 290 774 b 429 796 317 840 371 832 z "},"Ŭ":{"ha":1083,"x_min":0,"x_max":0,"o":"m 726 971 l 726 428 b 542 214 726 281 653 214 b 357 431 431 214 357 278 l 357 971 l 83 971 l 83 431 b 542 -21 83 133 257 -21 b 1000 428 826 -21 1001 140 l 1000 971 z m 283 1275 b 549 1046 279 1132 389 1046 b 813 1275 707 1046 817 1132 l 611 1275 b 549 1217 611 1224 564 1217 b 485 1275 532 1217 485 1224 z "},"ŭ":{"ha":864,"x_min":0,"x_max":0,"o":"m 67 686 l 67 306 b 335 -17 67 61 190 -15 b 551 75 407 -18 493 7 l 563 0 l 789 0 l 789 686 l 536 686 l 536 321 b 418 193 536 231 479 193 b 322 307 371 193 322 222 l 322 686 z m 183 983 b 439 761 179 843 285 761 b 693 983 592 761 697 843 l 499 983 b 439 925 499 932 454 925 b 378 983 422 925 378 932 z "},"Ů":{"ha":1083,"x_min":0,"x_max":0,"o":"m 726 971 l 726 428 b 542 214 726 281 653 214 b 357 431 431 214 357 278 l 357 971 l 83 971 l 83 431 b 542 -21 83 133 257 -21 b 1000 428 826 -21 1001 140 l 1000 971 z m 550 1376 b 550 1028 282 1376 283 1028 b 550 1376 825 1028 821 1376 z m 553 1251 b 553 1154 626 1251 628 1154 b 553 1251 478 1154 478 1251 z "},"ů":{"ha":864,"x_min":0,"x_max":0,"o":"m 67 686 l 67 306 b 335 -17 67 61 190 -15 b 551 75 407 -18 493 7 l 563 0 l 789 0 l 789 686 l 536 686 l 536 321 b 418 193 536 231 479 193 b 322 307 371 193 322 222 l 322 686 z m 436 1060 b 436 743 182 1060 183 743 b 436 1060 697 743 693 1060 z m 439 946 b 439 858 508 946 510 858 b 439 946 367 858 367 946 z "},"Ű":{"ha":1083,"x_min":0,"x_max":0,"o":"m 1000 971 l 1000 428 b 542 -21 1001 140 826 -21 b 83 431 257 -21 83 133 l 83 971 l 357 971 l 357 431 b 542 214 357 278 431 214 b 726 428 653 214 726 281 l 726 971 z m 397 1263 l 263 1040 l 488 1040 l 628 1251 l 628 1263 z m 706 1263 l 571 1040 l 796 1040 l 936 1251 l 936 1263 z "},"ű":{"ha":864,"x_min":0,"x_max":0,"o":"m 322 686 l 322 307 b 418 193 322 222 371 193 b 536 321 479 193 536 231 l 536 686 l 789 686 l 789 0 l 563 0 l 551 75 b 335 -17 493 7 407 -18 b 67 306 190 -15 67 61 l 67 686 z m 292 972 l 163 772 l 379 772 l 514 963 l 514 972 z m 589 972 l 460 772 l 676 772 l 811 963 l 811 972 z "},"Ų":{"ha":1089,"x_min":0,"x_max":0,"o":"m 729 971 l 729 428 b 544 214 729 281 656 214 b 360 431 433 214 360 278 l 360 971 l 86 971 l 86 431 b 511 -19 86 144 246 -8 b 481 -190 463 -58 450 -131 b 910 -207 551 -324 781 -299 l 807 -72 b 675 -57 751 -103 688 -101 b 715 1 668 -29 686 -8 b 724 4 718 3 721 4 l 732 7 b 1003 428 903 65 1004 210 l 1003 971 z "},"ų":{"ha":864,"x_min":0,"x_max":0,"o":"m 67 686 l 67 306 b 335 -17 67 61 190 -15 b 551 79 407 -18 493 11 l 564 4 b 478 -162 501 -24 463 -89 b 846 -231 508 -308 740 -312 l 768 -124 b 661 -110 706 -151 667 -135 b 789 -50 653 -72 704 -28 l 789 686 l 536 686 l 536 321 b 418 193 536 231 479 193 b 322 307 371 193 322 222 l 322 686 z "},"Ŵ":{"ha":1481,"x_min":0,"x_max":0,"o":"m 1135 1 l 911 1 l 739 467 l 572 1 l 350 1 l -12 972 l 288 972 l 413 631 b 464 406 436 557 450 478 l 643 972 l 833 972 l 1018 406 b 1072 638 1032 479 1050 557 l 1189 972 l 1489 972 z m 660 1307 l 429 1071 l 429 1060 l 668 1060 l 746 1131 l 822 1060 l 1061 1060 l 1061 1071 l 832 1307 z "},"ŵ":{"ha":1161,"x_min":0,"x_max":0,"o":"m 658 686 l 779 304 l 831 499 l 894 686 l 1163 686 l 911 -4 l 676 -4 l 581 256 l 486 -4 l 249 -4 l -1 686 l 265 686 l 331 497 l 383 304 l 504 686 z m 500 999 l 285 782 l 285 771 l 508 771 l 579 836 l 651 771 l 875 771 l 875 782 l 660 999 z "},"Ŷ":{"ha":1003,"x_min":0,"x_max":0,"o":"m 503 639 l 713 972 l 1022 972 l 1022 960 l 636 388 l 636 0 l 361 0 l 361 388 l -8 961 l -8 972 l 301 972 z m 419 1275 l 201 1060 l 201 1050 l 429 1050 l 501 1114 l 575 1050 l 803 1050 l 803 1060 l 583 1275 z "},"ŷ":{"ha":808,"x_min":0,"x_max":0,"o":"m 821 686 l 396 -290 l 129 -290 l 268 31 l -4 686 l 267 686 l 325 522 l 400 285 l 483 524 l 547 686 z m 315 1000 l 81 774 l 81 761 l 324 761 l 403 829 l 482 761 l 726 761 l 726 774 l 490 1000 z "},"Ź":{"ha":893,"x_min":0,"x_max":0,"o":"m 58 972 l 838 972 l 838 894 l 413 238 l 849 238 l 849 0 l 35 0 l 35 86 l 469 750 l 58 750 z m 700 1289 l 432 1289 l 325 1065 l 325 1057 l 549 1057 l 700 1278 z "},"ź":{"ha":688,"x_min":0,"x_max":0,"o":"m 632 686 l 632 600 l 371 219 l 644 219 l 644 0 l 32 0 l 32 79 l 306 483 l 58 483 l 58 686 z m 582 972 l 332 972 l 233 778 l 233 771 l 440 771 l 582 963 z "},"Ż":{"ha":893,"x_min":0,"x_max":0,"o":"m 58 972 l 838 972 l 838 894 l 413 238 l 849 238 l 849 0 l 35 0 l 35 86 l 469 750 l 58 750 z m 308 1181 b 458 1054 308 1096 383 1054 b 608 1181 533 1054 608 1096 b 458 1307 608 1264 533 1307 b 308 1181 383 1307 308 1264 z "},"ż":{"ha":688,"x_min":0,"x_max":0,"o":"m 632 686 l 632 600 l 371 219 l 644 219 l 644 0 l 32 0 l 32 79 l 306 483 l 58 483 l 58 686 z m 219 878 b 350 768 219 806 283 768 b 481 878 414 768 481 806 b 350 988 481 951 414 988 b 219 878 283 988 219 951 z "},"ſ":{"ha":500,"x_min":0,"x_max":0,"o":"m 397 0 l 397 707 b 474 792 397 767 433 792 b 567 758 507 792 539 782 l 644 913 b 438 988 593 963 517 988 b 142 707 296 988 142 908 l 142 674 l 25 674 l 25 476 l 142 476 l 142 0 z "},"¯":{"ha":629,"x_min":0,"x_max":0,"o":"m 63 779 l 549 779 l 549 974 l 63 974 z "},"Ā":{"ha":1107,"x_min":0,"x_max":0,"o":"m 833 0 l 1128 0 l 693 972 l 415 972 l -21 0 l 271 0 l 335 160 l 769 160 z m 676 390 l 428 390 l 553 700 z m 310 1033 l 796 1033 l 796 1228 l 310 1228 z "},"ā":{"ha":900,"x_min":0,"x_max":0,"o":"m 572 613 b 371 701 536 668 468 701 b 38 343 171 701 38 546 b 351 -12 38 143 150 0 b 578 74 428 -17 519 7 l 589 0 l 825 0 l 825 686 l 585 686 z m 429 494 b 571 343 519 494 571 435 b 429 193 571 263 515 193 b 292 343 353 193 292 247 b 429 494 292 439 353 494 z m 235 789 l 700 789 l 700 982 l 235 982 z "},"Ē":{"ha":933,"x_min":0,"x_max":0,"o":"m 876 232 l 369 232 l 369 379 l 829 379 l 829 603 l 369 603 l 369 742 l 857 742 l 857 972 l 99 972 l 99 0 l 876 0 z m 265 1051 l 731 1051 l 731 1238 l 265 1238 z "},"ē":{"ha":819,"x_min":0,"x_max":0,"o":"m 297 435 b 546 435 314 547 539 543 z m 419 703 b 38 342 233 703 38 592 b 438 -15 38 92 221 -15 b 750 99 556 -15 668 22 l 625 239 b 449 183 581 206 524 183 b 296 271 393 183 314 210 l 775 271 b 419 703 833 542 663 703 z m 214 783 l 647 783 l 647 963 l 214 963 z "},"ī":{"ha":406,"x_min":0,"x_max":0,"o":"m 331 0 l 331 686 l 75 686 l 75 0 z m 22 782 l 388 782 l 388 968 l 22 968 z "},"Ī":{"ha":471,"x_min":0,"x_max":0,"o":"m 372 0 l 372 972 l 99 972 l 99 0 z m 24 1057 l 442 1057 l 442 1257 l 24 1257 z "},"ō":{"ha":858,"x_min":0,"x_max":0,"o":"m 429 701 b 38 342 231 701 38 596 b 429 -17 38 92 232 -17 b 821 342 622 -17 821 92 b 429 701 821 592 632 701 z m 429 193 b 288 342 339 193 288 263 b 429 492 288 421 339 492 b 571 342 519 492 571 421 b 429 193 571 258 515 193 z m 217 771 l 640 771 l 640 969 l 217 969 z "},"Ō":{"ha":1169,"x_min":0,"x_max":0,"o":"m 1125 486 b 585 996 1125 810 904 996 b 44 486 267 996 44 806 b 585 -24 44 161 267 -24 b 1125 486 904 -24 1125 161 z m 850 486 b 585 211 850 325 746 211 b 319 486 429 211 319 324 b 585 761 319 647 428 761 b 850 486 746 761 850 653 z m 340 1069 l 826 1069 l 826 1264 l 340 1264 z "},"ū":{"ha":864,"x_min":0,"x_max":0,"o":"m 67 686 l 67 306 b 335 -17 67 61 190 -15 b 551 75 407 -18 493 7 l 563 0 l 789 0 l 789 686 l 536 686 l 536 321 b 418 193 536 231 479 193 b 322 307 371 193 322 222 l 322 686 z m 214 792 l 646 792 l 646 985 l 214 985 z "},"Ū":{"ha":1083,"x_min":0,"x_max":0,"o":"m 726 971 l 726 428 b 542 214 726 281 653 214 b 357 431 431 214 357 278 l 357 971 l 83 971 l 83 431 b 542 -21 83 133 257 -21 b 1000 428 826 -21 1001 140 l 1000 971 z m 313 1054 l 775 1054 l 775 1258 l 313 1258 z "},"ț":{"ha":600,"x_min":0,"x_max":0,"o":"m 136 853 l 136 682 l 26 682 l 26 486 l 136 486 l 136 261 b 390 -17 132 46 254 -17 b 588 29 461 -17 529 -4 l 532 218 b 457 194 511 204 482 194 b 389 261 418 194 390 213 l 389 486 l 544 486 l 544 682 l 390 682 l 390 881 z m 479 -183 b 357 -71 479 -107 421 -71 b 224 -182 289 -71 224 -108 b 297 -274 224 -221 238 -262 l 268 -415 l 400 -415 b 479 -183 453 -306 479 -228 z "},"Ț":{"ha":883,"x_min":0,"x_max":0,"o":"m 304 0 l 578 0 l 578 746 l 863 746 l 863 972 l 21 972 l 21 746 l 304 746 z m 560 -174 b 438 -61 560 -97 501 -61 b 304 -172 369 -61 304 -99 b 378 -264 304 -211 318 -253 l 349 -406 l 481 -406 b 560 -174 533 -296 560 -218 z "},"ș":{"ha":710,"x_min":0,"x_max":0,"o":"m 26 72 b 358 -18 104 15 239 -18 b 678 215 524 -18 678 46 b 363 442 678 397 506 438 b 311 475 321 443 311 463 b 372 508 311 500 336 508 b 544 467 428 510 507 490 l 653 619 b 372 703 586 669 483 703 b 56 478 211 703 56 643 b 350 253 56 311 217 257 b 422 215 400 249 422 238 b 353 182 422 193 399 182 b 110 258 297 185 214 190 z m 476 -183 b 360 -83 476 -117 419 -83 b 233 -182 294 -83 233 -118 b 303 -264 233 -218 247 -254 l 275 -390 l 400 -390 b 476 -183 451 -293 476 -224 z "},"Ș":{"ha":925,"x_min":0,"x_max":0,"o":"m 833 876 b 469 992 729 958 615 992 b 63 697 264 992 63 903 b 458 382 63 456 246 401 b 621 293 565 372 621 342 b 468 207 621 239 558 207 b 183 317 386 207 279 224 l 32 143 b 467 -28 167 1 292 -29 b 893 289 685 -26 893 68 b 499 611 893 513 692 590 b 338 697 403 621 338 631 b 469 769 338 749 403 769 b 697 703 554 769 631 753 z m 603 -197 b 468 -87 603 -124 538 -87 b 324 -196 393 -87 324 -125 b 403 -286 324 -235 338 -275 l 371 -424 l 515 -424 b 603 -197 574 -317 603 -242 z "},"ȷ":{"ha":406,"x_min":0,"x_max":0,"o":"m -97 -279 b 331 -32 122 -386 331 -300 l 331 675 l 75 675 l 75 -32 b -49 -100 75 -117 26 -142 z "},"Ǻ":{"ha":1107,"x_min":0,"x_max":0,"o":"m 554 1185 b 725 900 765 1185 838 1006 l 1128 0 l 833 0 l 769 160 l 335 160 l 271 0 l -21 0 l 385 903 b 554 1185 282 1011 346 1185 z m 553 736 l 485 533 l 428 390 l 676 390 l 619 533 z m 557 1043 b 557 942 471 1043 471 942 b 557 1043 640 942 639 1043 z m 833 1375 l 554 1375 l 442 1224 l 442 1218 l 675 1218 l 833 1367 z "},"ǻ":{"ha":900,"x_min":0,"x_max":0,"o":"m 585 686 l 825 686 l 825 0 l 589 0 l 578 74 b 351 -12 519 7 428 -17 b 38 343 150 0 38 143 b 371 701 38 546 171 701 b 572 613 468 701 536 668 z m 429 494 b 292 343 353 494 292 439 b 429 193 292 247 353 193 b 571 343 515 193 571 263 b 429 494 571 435 519 494 z m 450 1042 b 450 744 707 1042 711 744 b 450 1042 197 744 196 1042 z m 453 935 b 453 851 381 935 381 851 b 453 935 524 851 522 935 z m 707 1238 l 451 1238 l 350 1083 l 350 1078 l 563 1078 l 707 1229 z "},"Ǽ":{"ha":1285,"x_min":0,"x_max":0,"o":"m -36 15 l 540 972 l 1207 972 l 1207 753 l 869 753 l 869 600 l 1183 600 l 1183 388 l 869 388 l 869 218 l 1228 218 l 1228 0 l 617 0 l 617 146 l 328 146 l 240 0 l -36 0 z m 617 386 l 621 547 l 638 719 l 465 386 z m 1042 1260 l 765 1260 l 656 1050 l 656 1042 l 886 1042 l 1042 1250 z "},"ǽ":{"ha":1314,"x_min":0,"x_max":0,"o":"m 893 965 l 660 965 l 565 761 l 565 753 l 761 753 l 893 956 z m 438 494 b 300 343 361 494 300 439 b 438 193 300 247 361 193 b 582 336 524 193 582 251 b 438 494 582 436 528 494 z m 1049 435 b 796 435 1042 543 813 547 z m 794 271 b 951 183 813 210 896 183 b 1128 239 1026 183 1083 206 l 1253 99 b 940 -15 1171 22 1058 -15 b 750 63 867 -15 793 7 l 746 0 l 589 0 l 578 74 b 351 -12 519 7 428 -17 b 38 343 150 0 38 143 b 371 701 38 546 171 701 b 572 613 468 701 536 668 l 585 686 l 746 686 l 750 629 b 956 699 810 678 883 700 b 1264 271 1156 697 1325 543 z "},"Ǿ":{"ha":1169,"x_min":0,"x_max":0,"o":"m 860 1310 l 592 1310 l 485 1086 l 485 1078 l 708 1078 l 860 1299 z m 1088 1068 l 961 874 b 1125 486 1065 786 1125 654 b 585 -24 1125 161 904 -24 b 396 0 517 -24 454 -15 l 329 -103 l 92 -103 l 217 90 b 44 486 108 178 44 311 b 585 996 44 806 267 996 b 782 968 656 996 722 986 l 847 1068 z m 585 761 b 319 486 428 761 319 647 b 365 322 319 422 336 367 l 646 756 b 585 761 626 758 606 761 z m 850 486 b 811 642 850 546 836 599 l 535 215 b 585 211 551 213 567 211 b 850 486 746 211 850 325 z "},"ǿ":{"ha":860,"x_min":0,"x_max":0,"o":"m 661 989 l 418 989 l 321 807 l 321 800 l 525 800 l 661 979 z m 431 193 b 567 342 521 193 567 258 b 431 492 567 425 521 492 b 294 342 340 492 294 425 b 431 193 294 258 340 193 z m 431 701 b 515 694 458 701 488 699 l 561 771 l 797 771 l 704 618 b 822 342 776 560 822 469 b 431 -17 822 83 624 -17 b 351 -11 404 -17 378 -14 l 308 -83 l 71 -83 l 161 65 b 39 342 88 122 39 213 b 431 701 39 600 232 701 z "},"Ẁ":{"ha":1481,"x_min":0,"x_max":0,"o":"m 1489 972 l 1189 972 l 1072 638 b 1018 406 1050 557 1032 479 l 833 972 l 643 972 l 464 406 b 413 631 450 478 436 557 l 288 972 l -12 972 l 350 1 l 572 1 l 739 467 l 911 1 l 1135 1 z m 475 1265 l 639 1061 l 881 1061 l 881 1069 l 765 1276 l 475 1276 z "},"ẁ":{"ha":1161,"x_min":0,"x_max":0,"o":"m 504 686 l 383 304 l 331 497 l 265 686 l -1 686 l 249 -4 l 486 -4 l 581 256 l 676 -4 l 911 -4 l 1163 686 l 894 686 l 831 499 l 779 304 l 658 686 z m 343 964 l 492 771 l 710 771 l 710 778 l 606 974 l 343 974 z "},"Ẃ":{"ha":1481,"x_min":0,"x_max":0,"o":"m 1135 1 l 911 1 l 739 467 l 572 1 l 350 1 l -12 972 l 288 972 l 413 631 b 464 406 436 557 450 478 l 643 972 l 833 972 l 1018 406 b 1072 638 1032 479 1050 557 l 1189 972 l 1489 972 z m 1021 1276 l 735 1276 l 621 1067 l 621 1058 l 860 1058 l 1021 1267 z "},"ẃ":{"ha":1161,"x_min":0,"x_max":0,"o":"m 658 686 l 779 304 l 831 499 l 894 686 l 1163 686 l 911 -4 l 676 -4 l 581 256 l 486 -4 l 249 -4 l -1 686 l 265 686 l 331 497 l 383 304 l 504 686 z m 840 976 l 574 976 l 467 776 l 467 769 l 689 769 l 840 967 z "},"Ẅ":{"ha":1481,"x_min":0,"x_max":0,"o":"m 1135 1 l 911 1 l 739 467 l 572 1 l 350 1 l -12 972 l 288 972 l 413 631 b 464 406 436 557 450 478 l 643 972 l 833 972 l 1018 406 b 1072 638 1032 479 1050 557 l 1189 972 l 1489 972 z m 408 1171 b 538 1056 408 1096 472 1056 b 669 1171 603 1056 669 1096 b 538 1290 669 1249 603 1290 b 408 1171 472 1290 408 1249 z m 811 1171 b 943 1056 811 1096 876 1056 b 1074 1171 1007 1056 1074 1096 b 943 1290 1074 1249 1007 1290 b 811 1171 876 1290 811 1249 z "},"ẅ":{"ha":1161,"x_min":0,"x_max":0,"o":"m 658 686 l 779 304 l 831 499 l 894 686 l 1163 686 l 911 -4 l 676 -4 l 581 256 l 486 -4 l 249 -4 l -1 686 l 265 686 l 331 497 l 383 304 l 504 686 z m 274 869 b 394 761 274 799 333 761 b 517 869 454 761 517 799 b 394 981 517 942 454 981 b 274 869 333 981 274 942 z m 647 869 b 771 761 647 799 708 761 b 892 869 829 761 892 799 b 771 981 892 942 829 981 b 647 869 708 981 647 942 z "},"Ỳ":{"ha":1003,"x_min":0,"x_max":0,"o":"m 301 972 l -8 972 l -8 961 l 361 388 l 361 0 l 636 0 l 636 388 l 1022 960 l 1022 972 l 713 972 l 503 639 z m 228 1265 l 394 1054 l 640 1054 l 640 1061 l 522 1276 l 228 1276 z "},"ỳ":{"ha":808,"x_min":0,"x_max":0,"o":"m 547 686 l 483 524 l 400 285 l 325 522 l 267 686 l -4 686 l 268 31 l 129 -290 l 396 -290 l 821 686 z m 185 971 l 333 756 l 554 756 l 554 764 l 449 982 l 185 982 z "},"Δ":{"ha":1103,"x_min":0,"x_max":0,"o":"m 1090 24 l 672 972 l 394 972 l -26 17 l -26 0 l 1090 0 z m 533 697 l 725 221 l 339 221 z "},"Ω":{"ha":1147,"x_min":0,"x_max":0,"o":"m 561 771 b 826 497 728 771 826 656 b 632 228 826 388 778 264 l 632 0 l 1061 0 l 1061 218 l 926 218 b 1082 521 1036 281 1082 417 b 561 1000 1082 800 886 1000 b 42 521 236 1000 42 800 b 192 218 42 425 89 286 l 63 218 l 63 0 l 492 0 l 492 228 b 304 496 350 263 303 386 b 561 771 304 643 403 771 z "},"π":{"ha":975,"x_min":0,"x_max":0,"o":"m 406 0 l 406 481 l 551 481 l 551 218 b 924 1 551 -21 749 -43 l 901 174 b 800 222 853 160 800 156 l 800 481 l 929 481 l 929 685 l 22 685 l 22 481 l 151 481 l 151 0 z "},"⁰":{"ha":565,"x_min":0,"x_max":0,"o":"m 193 910 b 282 1000 193 971 238 1000 b 372 910 326 1000 372 971 l 372 833 b 282 746 372 775 326 746 b 193 833 238 746 193 775 z m 46 838 b 283 603 46 682 164 603 b 519 838 400 603 519 682 l 519 911 b 283 1139 519 1064 400 1139 b 46 911 164 1139 46 1064 z "},"⁴":{"ha":554,"x_min":0,"x_max":0,"o":"m 258 1129 l 28 822 l 33 696 l 297 696 l 297 613 l 446 613 l 446 696 l 507 696 l 507 825 l 446 825 l 446 1129 z m 297 825 l 186 825 l 297 971 z "},"⁵":{"ha":529,"x_min":0,"x_max":0,"o":"m 456 1131 l 64 1131 l 64 828 l 272 828 b 336 781 304 828 336 813 b 268 726 336 746 301 726 b 208 779 240 726 213 743 l 57 779 b 279 596 58 649 158 596 b 489 781 375 596 489 643 b 272 954 489 922 376 954 l 206 954 l 206 1000 l 456 1000 z "},"⁶":{"ha":535,"x_min":0,"x_max":0,"o":"m 339 785 b 269 739 339 754 303 739 b 203 785 235 739 203 754 b 271 831 201 817 235 831 b 339 785 304 831 339 817 z m 479 976 b 269 1142 474 1094 382 1142 b 53 976 161 1142 53 1089 l 53 786 b 271 608 53 669 163 608 b 492 785 376 608 492 653 b 300 954 492 901 392 954 b 203 932 264 954 232 947 l 203 976 b 275 1018 203 1003 239 1018 b 339 976 306 1018 335 1004 z "},"⁷":{"ha":457,"x_min":0,"x_max":0,"o":"m 232 613 l 440 1064 l 435 1129 l 36 1129 l 36 990 l 244 990 l 64 613 z "},"⁸":{"ha":544,"x_min":0,"x_max":0,"o":"m 194 774 b 276 819 194 803 232 819 b 353 774 319 819 353 797 b 275 724 354 753 335 724 b 194 774 213 724 193 756 z m 42 775 b 271 599 38 644 151 599 b 503 774 392 596 504 643 b 436 885 503 811 478 857 b 489 976 476 908 489 943 b 271 1142 489 1085 389 1142 b 57 975 150 1142 57 1085 b 110 881 57 943 79 903 b 42 775 67 853 42 806 z m 275 932 b 208 975 231 932 208 953 b 274 1017 208 994 231 1017 b 338 974 314 1017 338 994 b 275 932 338 953 318 932 z "},"⁹":{"ha":533,"x_min":0,"x_max":0,"o":"m 197 964 b 267 1008 197 993 231 1008 b 333 964 299 1008 333 993 b 265 918 335 931 299 918 b 197 964 231 918 197 931 z m 50 772 b 267 603 54 650 149 603 b 483 772 374 603 483 658 l 483 963 b 265 1139 483 1078 372 1139 b 44 964 160 1139 44 1085 b 236 793 44 847 144 793 b 333 815 272 793 304 800 l 333 772 b 260 729 333 744 296 729 b 193 772 228 729 197 743 z "},"₀":{"ha":565,"x_min":0,"x_max":0,"o":"m 193 189 b 282 279 193 250 238 279 b 372 189 326 279 372 250 l 372 113 b 282 25 372 54 326 25 b 193 113 238 25 193 54 z m 46 117 b 283 -118 46 -39 164 -118 b 519 117 400 -118 519 -39 l 519 190 b 283 418 519 343 400 418 b 46 190 164 418 46 343 z "},"₁":{"ha":397,"x_min":0,"x_max":0,"o":"m 46 -108 l 367 -108 l 367 18 l 279 18 l 279 414 l 60 356 l 60 228 b 131 243 78 231 108 239 l 131 18 l 46 18 z "},"₂":{"ha":526,"x_min":0,"x_max":0,"o":"m 197 250 b 264 289 203 275 233 289 b 325 249 293 289 325 276 b 231 196 325 217 282 207 b 49 29 150 176 49 151 l 49 -108 l 474 -108 l 474 36 l 192 36 b 283 76 199 58 238 67 b 478 249 368 96 478 122 b 260 422 478 365 383 422 b 51 250 156 422 53 361 z "},"₃":{"ha":531,"x_min":0,"x_max":0,"o":"m 263 101 b 331 61 306 101 331 85 b 260 17 331 31 296 17 b 193 56 229 17 197 25 l 38 56 b 261 -118 39 -67 163 -118 b 488 49 361 -118 488 -86 b 422 160 488 94 461 139 b 476 257 458 183 476 218 b 260 425 476 371 360 425 b 47 258 163 425 47 376 l 181 258 b 257 299 186 286 222 300 b 326 258 299 297 326 282 b 257 217 326 235 306 217 l 176 217 l 176 101 z "},"₄":{"ha":554,"x_min":0,"x_max":0,"o":"m 258 408 l 28 101 l 33 -25 l 297 -25 l 297 -108 l 446 -108 l 446 -25 l 507 -25 l 507 104 l 446 104 l 446 408 z m 297 104 l 186 104 l 297 250 z "},"₅":{"ha":532,"x_min":0,"x_max":0,"o":"m 458 418 l 67 418 l 67 115 l 275 115 b 339 68 307 115 339 100 b 271 14 339 33 304 14 b 211 67 243 14 215 31 l 60 67 b 282 -117 61 -64 161 -117 b 492 68 378 -117 492 -69 b 275 242 492 210 379 242 l 208 242 l 208 288 l 458 288 z "},"₆":{"ha":535,"x_min":0,"x_max":0,"o":"m 339 61 b 269 15 339 31 303 15 b 203 61 235 15 203 31 b 271 107 201 93 235 107 b 339 61 304 107 339 93 z m 479 253 b 269 418 474 371 382 418 b 53 253 161 418 53 365 l 53 63 b 271 -115 53 -54 163 -115 b 492 61 376 -115 492 -71 b 300 231 492 178 392 231 b 203 208 264 231 232 224 l 203 253 b 275 294 203 279 239 294 b 339 253 306 294 335 281 z "},"₇":{"ha":457,"x_min":0,"x_max":0,"o":"m 232 -108 l 440 343 l 435 408 l 36 408 l 36 269 l 244 269 l 64 -108 z "},"₈":{"ha":544,"x_min":0,"x_max":0,"o":"m 194 57 b 276 103 194 86 232 103 b 353 57 319 103 353 81 b 275 7 354 36 335 7 b 194 57 213 7 193 39 z m 42 58 b 271 -118 38 -72 151 -118 b 503 57 392 -121 504 -74 b 436 168 503 94 478 140 b 489 260 476 192 489 226 b 271 425 489 368 389 425 b 57 258 150 425 57 368 b 110 164 57 226 79 186 b 42 58 67 136 42 89 z m 275 215 b 208 258 231 215 208 236 b 274 300 208 278 231 300 b 338 257 314 300 338 278 b 275 215 338 236 318 215 z "},"₉":{"ha":536,"x_min":0,"x_max":0,"o":"m 197 246 b 267 290 197 275 231 290 b 333 246 299 290 333 275 b 265 200 335 213 299 200 b 197 246 231 200 197 213 z m 50 54 b 267 -115 54 -68 149 -115 b 483 54 374 -115 483 -60 l 483 244 b 265 421 483 360 372 421 b 44 246 160 421 44 367 b 236 75 44 129 144 75 b 333 97 272 75 304 82 l 333 54 b 260 11 333 26 296 11 b 193 54 228 11 197 25 z "},"ℓ":{"ha":569,"x_min":0,"x_max":0,"o":"m 321 332 b 535 700 426 431 518 557 b 539 775 538 724 539 749 b 357 975 539 881 501 975 b 121 736 176 975 121 907 l 121 308 b 36 269 97 296 65 282 l 67 165 b 124 193 82 171 104 183 b 338 -6 136 51 222 -6 b 490 24 383 -6 432 4 l 490 158 b 400 139 435 143 411 139 b 321 213 354 139 321 164 z m 317 736 b 360 867 317 800 331 867 b 410 781 401 867 410 825 b 404 718 410 761 407 736 b 315 514 397 647 357 575 l 315 532 b 317 600 315 550 317 569 z "},"℗":{"ha":1113,"x_min":0,"x_max":0,"o":"m 556 996 b 54 489 235 996 54 764 b 556 -18 54 214 235 -18 b 1058 489 878 -18 1058 214 b 556 996 1058 764 878 996 z m 206 489 b 556 863 208 697 335 863 b 904 489 778 863 904 697 b 556 115 904 279 778 115 b 206 489 335 115 208 279 z m 519 371 l 519 233 l 376 233 l 376 728 l 613 728 b 611 371 878 728 875 371 z m 519 597 l 519 493 l 614 493 b 613 597 690 493 681 597 z "},"Ω":{"ha":1169,"x_min":0,"x_max":0,"o":"m 585 771 b 850 497 751 771 850 656 b 656 228 850 388 801 264 l 656 0 l 1085 0 l 1085 218 l 950 218 b 1106 521 1060 281 1106 417 b 585 1000 1106 800 910 1000 b 65 521 260 1000 65 800 b 215 218 65 425 113 286 l 86 218 l 86 0 l 515 0 l 515 228 b 328 496 374 263 326 386 b 585 771 328 643 426 771 z "},"℮":{"ha":879,"x_min":0,"x_max":0,"o":"m 451 -10 b 783 160 585 -10 692 31 l 708 215 b 451 88 636 107 539 88 b 300 135 399 88 342 101 l 300 344 l 821 344 b 828 426 825 368 828 394 b 450 806 828 711 647 806 b 67 397 238 806 67 667 b 451 -10 67 131 239 -10 z m 450 714 b 604 674 507 714 561 701 l 604 446 l 300 446 l 300 671 b 450 714 343 703 396 714 z "},"⅓":{"ha":1183,"x_min":0,"x_max":0,"o":"m 742 974 l 200 -7 l 350 -7 l 896 974 z m 911 210 b 979 169 954 210 979 193 b 908 125 979 139 944 125 b 842 164 878 125 846 133 l 686 164 b 910 -10 688 42 811 -10 b 1136 157 1010 -10 1136 22 b 1071 268 1136 203 1110 247 b 1125 365 1107 292 1125 326 b 908 533 1125 479 1008 533 b 696 367 811 533 696 485 l 829 367 b 906 407 835 394 871 408 b 975 367 947 406 975 390 b 906 325 975 343 954 325 l 825 325 l 825 210 z m 56 468 l 375 468 l 375 594 l 288 594 l 288 990 l 75 932 l 75 804 b 149 819 93 807 126 815 l 149 594 l 56 594 z "},"⅔":{"ha":1272,"x_min":0,"x_max":0,"o":"m 842 974 l 300 -7 l 450 -7 l 996 974 z m 1001 210 b 1069 169 1044 210 1069 193 b 999 125 1069 139 1035 125 b 932 164 968 125 936 133 l 776 164 b 1000 -10 778 42 901 -10 b 1226 157 1100 -10 1226 22 b 1161 268 1226 203 1200 247 b 1215 365 1197 292 1215 326 b 999 533 1215 479 1099 533 b 786 367 901 533 786 485 l 919 367 b 996 407 925 394 961 408 b 1065 367 1038 406 1065 390 b 996 325 1065 343 1044 325 l 915 325 l 915 210 z m 206 807 b 272 846 211 832 242 846 b 333 806 301 846 333 833 b 239 750 333 774 290 761 b 57 586 158 731 57 708 l 57 449 l 482 449 l 482 589 l 200 589 b 292 640 211 624 242 631 b 486 806 376 660 486 679 b 268 979 486 922 392 979 b 60 807 164 979 61 918 z "},"⅛":{"ha":1178,"x_min":0,"x_max":0,"o":"m 742 974 l 200 -7 l 350 -7 l 896 974 z m 56 468 l 375 468 l 375 594 l 288 594 l 288 990 l 75 932 l 75 804 b 149 819 93 807 126 815 l 149 594 l 56 594 z m 817 165 b 906 215 817 197 857 215 b 989 165 953 215 989 192 b 904 111 990 143 969 111 b 817 165 836 111 815 146 z m 671 167 b 900 -10 667 36 781 -10 b 1132 165 1021 -12 1133 35 b 1065 276 1132 203 1107 249 b 1118 368 1106 300 1118 335 b 900 533 1118 476 1018 533 b 686 367 779 533 686 476 b 739 272 686 335 708 294 b 671 167 696 244 671 197 z m 904 322 b 836 367 858 322 836 344 b 903 410 836 390 858 410 b 969 365 944 410 969 390 b 904 322 969 344 949 322 z "},"⅜":{"ha":1264,"x_min":0,"x_max":0,"o":"m 828 974 l 286 -7 l 436 -7 l 982 974 z m 903 165 b 992 215 903 197 943 215 b 1075 165 1039 215 1075 192 b 990 111 1076 143 1056 111 b 903 165 922 111 901 146 z m 757 167 b 986 -10 753 36 867 -10 b 1218 165 1107 -12 1219 35 b 1151 276 1218 203 1193 249 b 1204 368 1192 300 1204 335 b 986 533 1204 476 1104 533 b 772 367 865 533 772 476 b 825 272 772 335 794 294 b 757 167 782 244 757 197 z m 990 322 b 922 367 944 322 922 344 b 989 410 922 390 944 410 b 1056 365 1031 410 1056 390 b 990 322 1056 344 1035 322 z m 272 661 b 340 621 315 661 340 644 b 269 576 340 590 306 576 b 203 615 239 576 207 585 l 47 615 b 271 442 49 493 172 442 b 497 608 371 442 497 474 b 432 719 497 654 471 699 b 486 817 468 743 486 778 b 269 985 486 931 369 985 b 57 818 172 985 57 936 l 190 818 b 267 858 196 846 232 860 b 336 818 308 857 336 842 b 267 776 336 794 315 776 l 186 776 l 186 661 z "},"⅝":{"ha":1250,"x_min":0,"x_max":0,"o":"m 814 974 l 272 -7 l 422 -7 l 968 974 z m 889 165 b 978 215 889 197 929 215 b 1061 165 1025 215 1061 192 b 976 111 1063 143 1042 111 b 889 165 908 111 888 146 z m 743 167 b 972 -10 739 36 853 -10 b 1204 165 1093 -12 1206 35 b 1138 276 1204 203 1179 249 b 1190 368 1178 300 1190 335 b 972 533 1190 476 1090 533 b 758 367 851 533 758 476 b 811 272 758 335 781 294 b 743 167 768 244 743 197 z m 976 322 b 908 367 931 322 908 344 b 975 410 908 390 931 410 b 1042 365 1017 410 1042 390 b 976 322 1042 344 1021 322 z m 451 971 l 60 971 l 60 668 l 268 668 b 332 621 300 668 332 653 b 264 567 332 586 297 567 b 204 619 236 567 208 583 l 53 619 b 275 436 54 489 154 436 b 485 621 371 436 485 483 b 268 794 485 763 372 794 l 201 794 l 201 840 l 451 840 z "},"⅞":{"ha":1181,"x_min":0,"x_max":0,"o":"m 724 974 l 182 -7 l 332 -7 l 878 974 z m 819 165 b 908 215 819 197 860 215 b 992 165 956 215 992 192 b 907 111 993 143 972 111 b 819 165 839 111 818 146 z m 674 167 b 903 -10 669 36 783 -10 b 1135 165 1024 -12 1136 35 b 1068 276 1135 203 1110 249 b 1121 368 1108 300 1121 335 b 903 533 1121 476 1021 533 b 689 367 782 533 689 476 b 742 272 689 335 711 294 b 674 167 699 244 674 197 z m 907 322 b 839 367 861 322 839 344 b 906 410 839 390 861 410 b 972 365 947 410 972 390 b 907 322 972 344 951 322 z m 247 456 l 456 907 l 450 972 l 51 972 l 51 833 l 260 833 l 79 456 z "},"←":{"ha":876,"x_min":0,"x_max":0,"o":"m 383 143 l 490 240 l 353 389 l 807 389 l 807 574 l 357 574 l 499 717 l 385 822 l 42 483 z "},"↑":{"ha":760,"x_min":0,"x_max":0,"o":"m 40 542 l 138 436 l 286 574 l 286 118 l 469 118 l 469 569 l 613 426 l 719 540 l 381 883 z "},"→":{"ha":876,"x_min":0,"x_max":0,"o":"m 494 824 l 386 726 b 525 579 432 678 481 628 l 69 579 l 69 393 l 519 393 l 378 251 l 493 146 l 835 485 z "},"↓":{"ha":760,"x_min":0,"x_max":0,"o":"m 718 433 l 621 540 b 472 401 572 496 522 446 l 472 857 l 288 857 l 288 407 l 144 549 l 40 435 l 379 92 z "},"↖":{"ha":728,"x_min":0,"x_max":0,"o":"m 81 268 l 225 263 l 232 464 l 551 144 l 686 274 l 367 593 l 567 594 l 561 747 l 81 750 z "},"↗":{"ha":729,"x_min":0,"x_max":0,"o":"m 164 604 l 364 597 l 43 278 l 172 143 l 494 463 l 494 375 b 496 261 494 339 496 297 l 647 267 l 647 507 b 649 747 647 583 649 669 l 168 747 z "},"↘":{"ha":772,"x_min":0,"x_max":0,"o":"m 174 208 l 654 208 b 653 447 654 286 653 371 b 653 689 653 525 653 610 l 500 694 b 499 582 500 658 499 617 l 499 493 l 178 813 l 49 678 l 369 358 l 168 351 z "},"↙":{"ha":774,"x_min":0,"x_max":0,"o":"m 606 351 l 406 358 l 725 678 l 596 813 l 275 493 l 275 582 b 275 694 275 617 274 658 l 121 689 b 119 447 121 610 119 525 l 119 208 l 600 208 z "},"∂":{"ha":815,"x_min":0,"x_max":0,"o":"m 531 331 b 285 332 531 150 285 144 b 531 331 285 518 531 524 z m 371 669 b 39 331 154 669 39 519 b 407 -11 39 157 163 -11 b 774 347 636 -11 772 136 b 221 974 774 678 558 949 l 182 793 b 449 658 256 786 393 729 b 371 669 428 667 388 669 z "},"∆":{"ha":1188,"x_min":0,"x_max":0,"o":"m 1151 24 l 733 972 l 456 972 l 35 17 l 35 0 l 1151 0 z m 594 697 l 786 221 l 400 221 z "},"∏":{"ha":967,"x_min":0,"x_max":0,"o":"m 867 -251 l 867 972 l 100 972 l 100 -251 l 363 -251 l 363 754 l 610 754 l 610 -251 z "},"∑":{"ha":863,"x_min":0,"x_max":0,"o":"m 569 508 l 410 758 l 786 758 l 786 972 l 72 972 l 72 851 b 306 511 233 619 269 564 l 60 143 l 60 0 l 794 0 l 794 225 l 375 225 z "},"∕":{"ha":706,"x_min":0,"x_max":0,"o":"m 507 967 l -28 -7 l 197 -7 l 732 967 z "},"∙":{"ha":417,"x_min":0,"x_max":0,"o":"m 63 433 b 208 301 63 346 135 301 b 354 433 281 301 354 346 b 208 567 354 521 281 567 b 63 433 135 567 63 521 z "},"√":{"ha":882,"x_min":0,"x_max":0,"o":"m 881 1010 l 717 1058 l 465 303 l 306 640 l 1 503 l 54 374 l 151 411 l 371 0 l 547 0 z "},"∞":{"ha":1067,"x_min":0,"x_max":0,"o":"m 531 313 b 742 207 589 254 660 203 b 993 436 910 211 993 321 b 731 672 993 567 901 672 b 531 567 669 672 590 628 b 333 672 485 621 397 672 b 74 436 163 672 74 556 b 321 207 75 324 156 213 b 531 313 397 200 471 253 z m 739 376 b 638 439 706 376 667 410 b 739 504 672 472 710 504 b 739 376 839 504 839 376 z m 328 376 b 328 504 228 376 228 504 b 429 439 357 504 394 472 b 328 376 400 410 361 376 z "},"∫":{"ha":722,"x_min":0,"x_max":0,"o":"m 226 18 b 74 -28 226 -106 119 -65 l -8 -201 b 481 18 193 -346 468 -262 l 481 693 b 649 739 481 799 574 785 l 736 929 b 226 693 556 1049 240 990 z "},"≈":{"ha":786,"x_min":0,"x_max":0,"o":"m 186 435 b 344 468 222 514 279 493 b 494 428 392 451 447 432 b 703 588 589 413 669 456 l 575 640 b 293 654 531 524 381 633 b 64 506 192 676 107 603 z m 203 172 b 363 206 239 250 297 231 b 511 165 408 189 464 169 b 721 324 606 150 688 193 l 593 378 b 310 392 549 260 397 371 b 82 242 210 413 124 340 z "},"≠":{"ha":808,"x_min":0,"x_max":0,"o":"m 79 168 l 189 168 l 151 104 l 279 31 b 356 168 303 72 331 125 l 725 168 l 725 375 l 474 375 b 531 475 492 411 510 438 l 725 475 l 725 683 l 644 683 l 683 747 l 553 818 l 476 683 l 79 683 l 79 475 l 360 475 b 307 375 339 439 326 411 l 79 375 z "},"≤":{"ha":647,"x_min":0,"x_max":0,"o":"m 71 61 l 578 61 l 578 231 l 71 231 z m 69 592 l 422 297 l 549 426 l 351 601 l 550 779 l 422 903 l 69 603 z "},"≥":{"ha":647,"x_min":0,"x_max":0,"o":"m 576 231 l 69 231 l 69 61 l 576 61 z m 578 603 l 225 903 l 97 779 l 296 601 l 99 426 l 225 297 l 578 592 z "},"◊":{"ha":890,"x_min":0,"x_max":0,"o":"m 851 486 l 554 975 l 340 975 l 39 486 l 340 -1 l 554 -1 z m 301 486 l 449 743 l 588 485 l 449 232 z "},"Á":{"ha":1107,"x_min":0,"x_max":0,"o":"m 769 160 l 335 160 l 271 0 l -21 0 l 415 972 l 693 972 l 1128 0 l 833 0 z m 553 700 l 428 390 l 676 390 z m 821 1276 l 553 1276 l 446 1053 l 446 1044 l 669 1044 l 821 1265 z "},"À":{"ha":1107,"x_min":0,"x_max":0,"o":"m 833 0 l 1128 0 l 693 972 l 415 972 l -21 0 l 271 0 l 335 160 l 769 160 z m 676 390 l 428 390 l 553 700 z m 294 1265 l 446 1044 l 669 1044 l 669 1053 l 563 1276 l 294 1276 z "},"Ä":{"ha":1107,"x_min":0,"x_max":0,"o":"m 769 160 l 335 160 l 271 0 l -21 0 l 415 972 l 693 972 l 1128 0 l 833 0 z m 553 700 l 428 390 l 676 390 z m 219 1153 b 349 1038 219 1078 283 1038 b 481 1153 414 1038 481 1078 b 349 1272 481 1231 414 1272 b 219 1153 283 1272 219 1231 z m 622 1153 b 754 1038 622 1078 688 1038 b 885 1153 818 1038 885 1078 b 754 1272 885 1231 818 1272 b 622 1153 688 1272 622 1231 z "},"Ã":{"ha":1107,"x_min":0,"x_max":0,"o":"m 833 0 l 1128 0 l 693 972 l 415 972 l -21 0 l 271 0 l 335 160 l 769 160 z m 676 390 l 428 390 l 553 700 z m 543 1071 b 839 1179 676 1004 790 1053 l 704 1267 b 556 1243 667 1204 617 1210 b 257 1140 447 1301 304 1268 l 397 1051 b 543 1071 425 1111 482 1104 z "},"Â":{"ha":1107,"x_min":0,"x_max":0,"o":"m 769 160 l 335 160 l 271 0 l -21 0 l 415 972 l 693 972 l 1128 0 l 833 0 z m 553 700 l 428 390 l 676 390 z m 472 1271 l 261 1053 l 261 1042 l 481 1042 l 551 1107 l 622 1042 l 842 1042 l 842 1053 l 631 1271 z "},"Ï":{"ha":471,"x_min":0,"x_max":0,"o":"m -69 1176 b 60 1061 -69 1101 -6 1061 b 192 1176 125 1061 192 1101 b 60 1296 192 1254 125 1296 b -69 1176 -6 1296 -69 1254 z m 296 1176 b 428 1061 296 1101 361 1061 b 558 1176 492 1061 558 1101 b 428 1296 558 1254 492 1296 b 296 1176 361 1296 296 1254 z m 99 0 l 99 972 l 372 972 l 372 0 z "},"Î":{"ha":471,"x_min":0,"x_max":0,"o":"m 99 0 l 99 972 l 372 972 l 372 0 z m 160 1271 l -51 1053 l -51 1042 l 168 1042 l 239 1107 l 310 1042 l 529 1042 l 529 1053 l 318 1271 z "},"Í":{"ha":471,"x_min":0,"x_max":0,"o":"m 99 0 l 99 972 l 372 972 l 372 0 z m 486 1272 l 218 1272 l 111 1049 l 111 1040 l 335 1040 l 486 1261 z "},"Ì":{"ha":471,"x_min":0,"x_max":0,"o":"m 372 0 l 372 972 l 99 972 l 99 0 z m -12 1264 l 139 1043 l 363 1043 l 363 1051 l 256 1275 l -12 1275 z "},"Ö":{"ha":1169,"x_min":0,"x_max":0,"o":"m 1125 486 b 585 -24 1125 161 904 -24 b 44 486 267 -24 44 161 b 585 996 44 806 267 996 b 1125 486 904 996 1125 810 z m 850 486 b 585 761 850 653 746 761 b 319 486 428 761 319 647 b 585 211 319 324 429 211 b 850 486 746 211 850 325 z m 256 1171 b 385 1056 256 1096 319 1056 b 517 1171 450 1056 517 1096 b 385 1290 517 1249 450 1290 b 256 1171 319 1290 256 1249 z m 658 1171 b 790 1056 658 1096 724 1056 b 921 1171 854 1056 921 1096 b 790 1290 921 1249 854 1290 b 658 1171 724 1290 658 1249 z "},"Õ":{"ha":1169,"x_min":0,"x_max":0,"o":"m 1125 486 b 585 996 1125 810 904 996 b 44 486 267 996 44 806 b 585 -24 44 161 267 -24 b 1125 486 904 -24 1125 161 z m 850 486 b 585 211 850 325 746 211 b 319 486 429 211 319 324 b 585 761 319 647 428 761 b 850 486 746 761 850 653 z m 582 1094 b 892 1208 722 1025 842 1076 l 751 1300 b 596 1275 711 1235 660 1240 b 282 1168 482 1336 332 1301 l 429 1075 b 582 1094 458 1138 518 1131 z "},"Ô":{"ha":1169,"x_min":0,"x_max":0,"o":"m 1125 486 b 585 -24 1125 161 904 -24 b 44 486 267 -24 44 161 b 585 996 44 806 267 996 b 1125 486 904 996 1125 810 z m 850 486 b 585 761 850 653 746 761 b 319 486 428 761 319 647 b 585 211 319 324 429 211 b 850 486 746 211 850 325 z m 510 1289 l 299 1071 l 299 1060 l 518 1060 l 589 1125 l 660 1060 l 879 1060 l 879 1071 l 668 1289 z "},"Ó":{"ha":1169,"x_min":0,"x_max":0,"o":"m 1125 486 b 585 -24 1125 161 904 -24 b 44 486 267 -24 44 161 b 585 996 44 806 267 996 b 1125 486 904 996 1125 810 z m 850 486 b 585 761 850 653 746 761 b 319 486 428 761 319 647 b 585 211 319 324 429 211 b 850 486 746 211 850 325 z m 836 1300 l 568 1300 l 461 1076 l 461 1068 l 685 1068 l 836 1289 z "},"Ò":{"ha":1169,"x_min":0,"x_max":0,"o":"m 1125 486 b 585 996 1125 810 904 996 b 44 486 267 996 44 806 b 585 -24 44 161 267 -24 b 1125 486 904 -24 1125 161 z m 850 486 b 585 211 850 325 746 211 b 319 486 429 211 319 324 b 585 761 319 647 428 761 b 850 486 746 761 850 653 z m 343 1289 l 494 1068 l 718 1068 l 718 1076 l 611 1300 l 343 1300 z "},"Ñ":{"ha":1110,"x_min":0,"x_max":0,"o":"m 332 972 l 99 972 l 99 0 l 376 0 l 376 311 l 372 524 l 778 0 l 1011 0 l 1011 972 l 735 972 l 735 639 b 743 440 736 601 736 557 z m 538 1090 b 853 1206 679 1019 800 1071 l 710 1299 b 551 1274 669 1232 617 1238 b 235 1164 436 1335 285 1300 l 383 1069 b 538 1090 413 1133 474 1126 z "},"Ý":{"ha":1003,"x_min":0,"x_max":0,"o":"m 503 639 l 713 972 l 1022 972 l 1022 960 l 636 388 l 636 0 l 361 0 l 361 388 l -8 961 l -8 972 l 301 972 z m 757 1283 l 489 1283 l 382 1060 l 382 1051 l 606 1051 l 757 1272 z "},"Ü":{"ha":1083,"x_min":0,"x_max":0,"o":"m 1000 971 l 1000 428 b 542 -21 1001 140 826 -21 b 83 431 257 -21 83 133 l 83 971 l 357 971 l 357 431 b 542 214 357 278 431 214 b 726 428 653 214 726 281 l 726 971 z m 206 1178 b 335 1063 206 1103 269 1063 b 467 1178 400 1063 467 1103 b 335 1297 467 1256 400 1297 b 206 1178 269 1297 206 1256 z m 608 1178 b 740 1063 608 1103 674 1063 b 871 1178 804 1063 871 1103 b 740 1297 871 1256 804 1297 b 608 1178 674 1297 608 1256 z "},"Û":{"ha":1083,"x_min":0,"x_max":0,"o":"m 1000 971 l 1000 428 b 542 -21 1001 140 826 -21 b 83 431 257 -21 83 133 l 83 971 l 357 971 l 357 431 b 542 214 357 278 431 214 b 726 428 653 214 726 281 l 726 971 z m 467 1290 l 256 1072 l 256 1061 l 475 1061 l 546 1126 l 617 1061 l 836 1061 l 836 1072 l 625 1290 z "},"Ú":{"ha":1083,"x_min":0,"x_max":0,"o":"m 1000 971 l 1000 428 b 542 -21 1001 140 826 -21 b 83 431 257 -21 83 133 l 83 971 l 357 971 l 357 431 b 542 214 357 278 431 214 b 726 428 653 214 726 281 l 726 971 z m 788 1283 l 519 1283 l 413 1060 l 413 1051 l 636 1051 l 788 1272 z "},"Ù":{"ha":1083,"x_min":0,"x_max":0,"o":"m 726 971 l 726 428 b 542 214 726 281 653 214 b 357 431 431 214 357 278 l 357 971 l 83 971 l 83 431 b 542 -21 83 133 257 -21 b 1000 428 826 -21 1001 140 l 1000 971 z m 300 1274 l 451 1053 l 675 1053 l 675 1061 l 568 1285 l 300 1285 z "},"å":{"ha":900,"x_min":0,"x_max":0,"o":"m 572 613 b 371 701 536 668 468 701 b 38 343 171 701 38 546 b 351 -12 38 143 150 0 b 578 74 428 -17 519 7 l 589 0 l 825 0 l 825 686 l 585 686 z m 429 494 b 571 343 519 494 571 435 b 429 193 571 263 515 193 b 292 343 353 193 292 247 b 429 494 292 439 353 494 z m 447 1094 b 447 754 172 1094 174 754 b 447 1094 728 754 724 1094 z m 449 972 b 449 878 524 972 525 878 b 449 972 372 878 372 972 z "},"ä":{"ha":900,"x_min":0,"x_max":0,"o":"m 169 882 b 299 767 169 807 233 767 b 431 882 364 767 431 807 b 299 1001 431 960 364 1001 b 169 882 233 1001 169 960 z m 525 882 b 657 767 525 807 590 767 b 788 882 721 767 788 807 b 657 1001 788 960 721 1001 b 525 882 590 1001 525 960 z m 585 686 l 825 686 l 825 0 l 589 0 l 578 74 b 351 -12 519 7 428 -17 b 38 343 150 0 38 143 b 371 701 38 546 171 701 b 572 613 468 701 536 668 z m 429 494 b 292 343 353 494 292 439 b 429 193 292 247 353 193 b 571 343 515 193 571 263 b 429 494 571 435 519 494 z "},"â":{"ha":900,"x_min":0,"x_max":0,"o":"m 585 686 l 825 686 l 825 0 l 589 0 l 578 74 b 351 -12 519 7 428 -17 b 38 343 150 0 38 143 b 371 701 38 546 171 701 b 572 613 468 701 536 668 z m 429 494 b 292 343 353 494 292 439 b 429 193 292 247 353 193 b 571 343 515 193 571 263 b 429 494 571 435 519 494 z m 381 993 l 169 775 l 169 764 l 389 764 l 460 829 l 531 764 l 750 764 l 750 775 l 539 993 z "},"á":{"ha":900,"x_min":0,"x_max":0,"o":"m 585 686 l 825 686 l 825 0 l 589 0 l 578 74 b 351 -12 519 7 428 -17 b 38 343 150 0 38 143 b 371 701 38 546 171 701 b 572 613 468 701 536 668 z m 429 494 b 292 343 353 494 292 439 b 429 193 292 247 353 193 b 571 343 515 193 571 263 b 429 494 571 435 519 494 z m 692 992 l 429 992 l 325 774 l 325 765 l 543 765 l 692 981 z "},"à":{"ha":900,"x_min":0,"x_max":0,"o":"m 572 613 b 371 701 536 668 468 701 b 38 343 171 701 38 546 b 351 -12 38 143 150 0 b 578 74 428 -17 519 7 l 589 0 l 825 0 l 825 686 l 585 686 z m 429 494 b 571 343 519 494 571 435 b 429 193 571 263 515 193 b 292 343 353 193 292 247 b 429 494 292 439 353 494 z m 229 983 l 378 765 l 597 765 l 597 774 l 492 993 l 229 993 z "},"ë":{"ha":819,"x_min":0,"x_max":0,"o":"m 147 882 b 269 772 147 811 208 772 b 394 882 332 772 394 811 b 269 996 394 956 332 996 b 147 882 208 996 147 956 z m 486 882 b 611 772 486 811 547 772 b 735 882 671 772 735 811 b 611 996 735 956 671 996 b 486 882 547 996 486 956 z m 297 435 b 546 435 314 547 539 543 z m 419 703 b 38 342 233 703 38 592 b 438 -15 38 92 221 -15 b 750 99 556 -15 668 22 l 625 239 b 449 183 581 206 524 183 b 296 271 393 183 314 210 l 775 271 b 419 703 833 542 663 703 z "},"ê":{"ha":819,"x_min":0,"x_max":0,"o":"m 297 435 b 546 435 314 547 539 543 z m 419 703 b 38 342 233 703 38 592 b 438 -15 38 92 221 -15 b 750 99 556 -15 668 22 l 625 239 b 449 183 581 206 524 183 b 296 271 393 183 314 210 l 775 271 b 419 703 833 542 663 703 z m 343 988 l 132 769 l 132 758 l 351 758 l 422 824 l 493 758 l 713 758 l 713 769 l 501 988 z "},"é":{"ha":819,"x_min":0,"x_max":0,"o":"m 297 435 b 546 435 314 547 539 543 z m 419 703 b 38 342 233 703 38 592 b 438 -15 38 92 221 -15 b 750 99 556 -15 668 22 l 625 239 b 449 183 581 206 524 183 b 296 271 393 183 314 210 l 775 271 b 419 703 833 542 663 703 z m 668 992 l 408 992 l 304 775 l 304 767 l 521 767 l 668 981 z "},"è":{"ha":819,"x_min":0,"x_max":0,"o":"m 297 435 b 546 435 314 547 539 543 z m 419 703 b 38 342 233 703 38 592 b 438 -15 38 92 221 -15 b 750 99 556 -15 668 22 l 625 239 b 449 183 581 206 524 183 b 296 271 393 183 314 210 l 775 271 b 419 703 833 542 663 703 z m 199 982 l 346 768 l 563 768 l 563 776 l 458 993 l 199 993 z "},"ò":{"ha":858,"x_min":0,"x_max":0,"o":"m 429 701 b 38 342 231 701 38 596 b 429 -17 38 92 232 -17 b 821 342 622 -17 821 92 b 429 701 821 592 632 701 z m 429 193 b 288 342 339 193 288 263 b 429 492 288 421 339 492 b 571 342 519 492 571 421 b 429 193 571 258 515 193 z m 192 985 l 343 774 l 568 774 l 568 782 l 461 994 l 192 994 z "},"ö":{"ha":858,"x_min":0,"x_max":0,"o":"m 133 886 b 263 771 133 811 197 771 b 394 886 328 771 394 811 b 263 1006 394 964 328 1006 b 133 886 197 1006 133 964 z m 467 886 b 599 771 467 811 532 771 b 729 886 663 771 729 811 b 599 1006 729 964 663 1006 b 467 886 532 1006 467 964 z m 429 706 b 821 346 632 706 821 596 b 429 -12 821 96 622 -12 b 38 346 232 -12 38 96 b 429 706 38 600 231 706 z m 429 197 b 571 346 515 197 571 263 b 429 496 571 425 519 496 b 288 346 339 496 288 425 b 429 197 288 267 339 197 z "},"õ":{"ha":858,"x_min":0,"x_max":0,"o":"m 429 701 b 38 342 231 701 38 596 b 429 -17 38 92 232 -17 b 821 342 622 -17 821 92 b 429 701 821 592 632 701 z m 429 193 b 288 342 339 193 288 263 b 429 492 288 421 339 492 b 571 342 519 492 571 421 b 429 193 571 258 515 193 z m 438 790 b 717 901 564 722 671 772 l 590 992 b 450 967 554 928 507 933 b 167 861 347 1028 211 993 l 300 771 b 438 790 326 832 379 825 z "},"ô":{"ha":858,"x_min":0,"x_max":0,"o":"m 429 701 b 821 342 632 701 821 592 b 429 -17 821 92 622 -17 b 38 342 232 -17 38 92 b 429 701 38 596 231 701 z m 429 193 b 571 342 515 193 571 258 b 429 492 571 421 519 492 b 288 342 339 492 288 421 b 429 193 288 263 339 193 z m 350 986 l 139 768 l 139 757 l 358 757 l 429 822 l 500 757 l 719 757 l 719 768 l 508 986 z "},"ó":{"ha":858,"x_min":0,"x_max":0,"o":"m 429 701 b 821 342 632 701 821 592 b 429 -17 821 92 622 -17 b 38 342 232 -17 38 92 b 429 701 38 596 231 701 z m 429 193 b 571 342 515 193 571 258 b 429 492 571 421 519 492 b 288 342 339 492 288 421 b 429 193 288 263 339 193 z m 663 990 l 400 990 l 296 775 l 296 767 l 514 767 l 663 979 z "},"ú":{"ha":864,"x_min":0,"x_max":0,"o":"m 322 686 l 322 307 b 418 193 322 222 371 193 b 536 321 479 193 536 231 l 536 686 l 789 686 l 789 0 l 563 0 l 551 75 b 335 -17 493 7 407 -18 b 67 306 190 -15 67 61 l 67 686 z m 686 990 l 417 990 l 308 772 l 308 764 l 533 764 l 686 979 z "},"ý":{"ha":808,"x_min":0,"x_max":0,"o":"m 821 686 l 396 -290 l 129 -290 l 268 31 l -4 686 l 267 686 l 325 522 l 400 285 l 483 524 l 547 686 z m 663 988 l 394 988 l 288 764 l 288 756 l 511 756 l 663 976 z "},"ü":{"ha":864,"x_min":0,"x_max":0,"o":"m 322 686 l 322 307 b 418 193 322 222 371 193 b 536 321 479 193 536 231 l 536 686 l 789 686 l 789 0 l 563 0 l 551 75 b 335 -17 493 7 407 -18 b 67 306 190 -15 67 61 l 67 686 z m 103 874 b 231 763 103 801 167 763 b 360 874 294 763 360 801 b 231 989 360 949 294 989 b 103 874 167 989 103 949 z m 500 874 b 629 763 500 801 564 763 b 757 874 692 763 757 801 b 629 989 757 949 692 989 b 500 874 564 989 500 949 z "},"û":{"ha":864,"x_min":0,"x_max":0,"o":"m 322 686 l 322 307 b 418 193 322 222 371 193 b 536 321 479 193 536 231 l 536 686 l 789 686 l 789 0 l 563 0 l 551 75 b 335 -17 493 7 407 -18 b 67 306 190 -15 67 61 l 67 686 z m 344 990 l 129 782 l 129 771 l 354 771 l 426 833 l 499 771 l 722 771 l 722 782 l 507 990 z "},"ÿ":{"ha":808,"x_min":0,"x_max":0,"o":"m 821 686 l 396 -290 l 129 -290 l 268 31 l -4 686 l 267 686 l 325 522 l 400 285 l 483 524 l 547 686 z m 85 871 b 214 756 85 796 149 756 b 346 871 279 756 346 796 b 214 990 346 949 279 990 b 85 871 149 990 85 949 z m 488 871 b 619 756 488 796 553 756 b 750 871 683 756 750 796 b 619 990 750 949 683 990 b 488 871 553 990 488 949 z "},"ù":{"ha":864,"x_min":0,"x_max":0,"o":"m 67 686 l 67 306 b 335 -17 67 61 190 -15 b 551 75 407 -18 493 7 l 563 0 l 789 0 l 789 686 l 536 686 l 536 321 b 418 193 536 231 479 193 b 322 307 371 193 322 222 l 322 686 z m 181 974 l 332 763 l 556 763 l 556 769 l 449 985 l 181 985 z "},"…":{"ha":1143,"x_min":0,"x_max":0,"o":"m 196 -11 b 196 240 381 -11 382 240 b 196 -11 11 240 14 -11 z m 571 -11 b 571 240 756 -11 757 240 b 571 -11 386 240 389 -11 z m 946 -11 b 946 240 1131 -11 1132 240 b 946 -11 761 240 764 -11 z "},"œ":{"ha":1317,"x_min":0,"x_max":0,"o":"m 797 435 b 1043 435 814 547 1036 543 z m 429 193 b 293 342 339 193 293 258 b 429 492 293 425 339 492 b 565 342 519 492 565 425 b 429 193 565 258 519 193 z m 429 701 b 38 342 231 701 38 600 b 413 -17 38 101 213 -17 b 681 89 522 -17 607 21 b 931 -14 743 13 833 -14 b 1250 92 1046 -14 1168 21 l 1122 239 b 946 183 1078 206 1021 183 b 796 271 890 183 814 210 l 1272 271 b 917 703 1331 542 1160 703 b 682 597 828 703 735 658 b 429 701 617 674 526 701 z "},"¡":{"ha":421,"x_min":0,"x_max":0,"o":"m 339 374 l 343 -279 l 74 -279 l 79 374 z m 211 700 b 211 428 13 700 14 428 b 211 700 406 428 406 700 z "},"¿":{"ha":825,"x_min":0,"x_max":0,"o":"m 569 376 b 390 97 560 189 467 142 b 324 18 346 71 325 49 b 425 -65 322 -25 356 -65 b 540 38 486 -65 540 -43 l 785 38 b 425 -287 806 -176 624 -287 b 43 3 226 -287 42 -211 b 300 376 44 204 296 199 z m 432 703 b 432 431 233 703 235 431 b 432 703 626 431 626 703 z "},"Å":{"ha":1107,"x_min":0,"x_max":0,"o":"m 554 1221 b 385 903 346 1221 289 1015 l -21 0 l 271 0 l 335 160 l 769 160 l 833 0 l 1128 0 l 725 900 b 554 1221 825 1011 765 1221 z m 619 533 l 676 390 l 428 390 l 485 533 l 553 736 z m 557 1082 b 557 965 639 1082 640 965 b 557 1082 471 965 471 1082 z "},"Ç":{"ha":983,"x_min":0,"x_max":0,"o":"m 301 -307 b 729 -264 396 -426 672 -425 b 586 -71 760 -172 711 -83 l 603 -25 b 969 126 740 -19 865 24 l 808 307 b 579 208 739 236 644 208 b 319 478 388 208 321 351 b 579 757 318 604 392 757 b 786 672 644 757 717 739 l 956 839 b 579 994 846 946 719 994 b 47 479 214 994 46 729 b 439 -12 49 250 160 39 l 385 -147 l 425 -176 b 546 -221 475 -144 558 -174 b 392 -218 531 -276 433 -257 z "},"Ø":{"ha":1169,"x_min":0,"x_max":0,"o":"m 847 1068 l 782 968 b 585 996 722 986 656 996 b 44 486 267 996 44 806 b 217 90 44 311 108 178 l 92 -103 l 329 -103 l 396 0 b 585 -24 454 -15 517 -24 b 1125 486 904 -24 1125 161 b 961 874 1125 654 1065 786 l 1088 1068 z m 585 761 b 646 756 606 761 626 758 l 365 322 b 319 486 336 367 319 422 b 585 761 319 647 428 761 z m 850 486 b 585 211 850 325 746 211 b 535 215 567 211 551 213 l 811 642 b 850 486 836 599 850 546 z "},"ã":{"ha":900,"x_min":0,"x_max":0,"o":"m 572 613 b 371 701 536 668 468 701 b 38 343 171 701 38 546 b 351 -12 38 143 150 0 b 578 74 428 -17 519 7 l 589 0 l 825 0 l 825 686 l 585 686 z m 429 494 b 571 343 519 494 571 435 b 429 193 571 263 515 193 b 292 343 353 193 292 247 b 429 494 292 439 353 494 z m 449 796 b 733 907 576 728 686 778 l 604 997 b 461 972 568 933 519 939 b 174 868 357 1032 219 999 l 308 776 b 449 796 335 838 390 831 z "},"æ":{"ha":1314,"x_min":0,"x_max":0,"o":"m 438 494 b 582 336 528 494 582 436 b 438 193 582 251 524 193 b 300 343 361 193 300 247 b 438 494 300 439 361 494 z m 796 435 b 1049 435 813 547 1042 543 z m 1264 271 b 956 699 1325 543 1156 697 b 750 629 883 700 810 678 l 746 686 l 585 686 l 572 613 b 371 701 536 668 468 701 b 38 343 171 701 38 546 b 351 -12 38 143 150 0 b 578 74 428 -17 519 7 l 589 0 l 746 0 l 750 63 b 940 -15 793 7 867 -15 b 1253 99 1058 -15 1171 22 l 1128 239 b 951 183 1083 206 1026 183 b 794 271 896 183 813 210 z "},"ç":{"ha":722,"x_min":0,"x_max":0,"o":"m 564 256 b 436 199 529 218 483 199 b 288 340 339 199 288 265 b 438 497 288 426 340 497 b 556 447 483 497 522 482 l 692 594 b 422 701 619 667 521 701 b 38 342 229 701 38 592 b 300 0 38 140 153 36 l 240 -144 l 279 -171 b 399 -214 329 -140 411 -168 b 247 -211 383 -268 288 -249 l 158 -296 b 581 -251 251 -417 526 -410 b 438 -71 610 -165 561 -83 l 460 -12 b 710 103 550 -4 636 38 z "},"ï":{"ha":406,"x_min":0,"x_max":0,"o":"m -76 860 b 46 742 -76 783 -17 742 b 171 860 107 742 171 783 b 46 983 171 940 107 983 b -76 860 -17 983 -76 940 z m 229 860 b 354 742 229 783 292 742 b 478 860 415 742 478 783 b 354 983 478 940 415 983 b 229 860 292 983 229 940 z m 75 0 l 75 686 l 331 686 l 331 0 z "},"î":{"ha":406,"x_min":0,"x_max":0,"o":"m 126 985 l -61 764 l -61 753 l 133 753 l 196 815 l 256 753 l 453 753 l 453 764 l 267 985 z m 75 0 l 75 686 l 331 686 l 331 0 z "},"í":{"ha":406,"x_min":0,"x_max":0,"o":"m 393 981 l 156 981 l 76 763 l 76 754 l 290 754 l 393 969 z m 75 0 l 75 686 l 331 686 l 331 0 z "},"ì":{"ha":406,"x_min":0,"x_max":0,"o":"m 0 969 l 103 754 l 310 754 l 310 763 l 238 981 l 0 981 z m 331 0 l 331 686 l 75 686 l 75 0 z "},"ø":{"ha":860,"x_min":0,"x_max":0,"o":"m 431 193 b 294 342 340 193 294 258 b 431 492 294 425 340 492 b 567 342 521 492 567 425 b 431 193 567 258 521 193 z m 431 701 b 39 342 232 701 39 600 b 161 65 39 213 88 122 l 71 -83 l 308 -83 l 351 -11 b 431 -17 378 -14 404 -17 b 822 342 624 -17 822 83 b 704 618 822 469 776 560 l 797 771 l 561 771 l 515 694 b 431 701 488 699 458 701 z "}}}
